<svg width="1191" height="1314" viewBox="0 0 1191 1314" fill="none" xmlns="http://www.w3.org/2000/svg">
<g opacity="0.7" clip-path="url(#clip0_12_199)">
<path fill-rule="evenodd" clip-rule="evenodd" d="M755.85 26.4833C662.423 66.5106 527.583 66.5104 434.156 26.483C358.247 -6.03876 273.34 -9.05464 194.995 25.0238C29.6621 96.9396 -44.4926 307.101 27.4667 496.684C27.4826 496.726 27.4819 496.773 27.4645 496.815L49.9204 545.644C125.829 710.702 183.046 883.73 220.506 1061.5L256.14 1230.61C268.472 1279.23 312.05 1313.25 361.985 1313.25C415.617 1313.25 461.314 1274.13 469.828 1220.93L520.065 907.055C525.981 870.087 557.736 842.904 595.005 842.904C632.274 842.904 664.029 870.088 669.945 907.055L720.181 1220.93C728.695 1274.13 774.392 1313.25 828.023 1313.25C877.959 1313.25 921.536 1279.23 933.868 1230.61L969.502 1061.5C1006.96 883.73 1064.18 710.702 1140.09 545.643L1162.54 496.815C1162.53 496.773 1162.53 496.726 1162.54 496.684C1234.5 307.101 1160.35 96.9396 995.014 25.0238C916.669 -9.05499 831.76 -6.03893 755.85 26.4833Z" fill="url(#paint0_linear_12_199)"/>
</g>
<defs>
<linearGradient id="paint0_linear_12_199" x1="157.504" y1="0.749998" x2="875.004" y2="1260.75" gradientUnits="userSpaceOnUse">
<stop stop-color="#F0F6F9"/>
<stop offset="1" stop-color="#CDDFF2"/>
</linearGradient>
<clipPath id="clip0_12_199">
<rect width="1191" height="1314" fill="white"/>
</clipPath>
</defs>
</svg>
