<svg width="27" height="31" viewBox="0 0 27 31" fill="none" xmlns="http://www.w3.org/2000/svg">
<path d="M19.7042 21.5L18.548 23.6741L24.209 22.7486C23.0666 22.1756 21.5201 21.7661 19.7042 21.5ZM5.12116 21.974C2.49916 22.6655 0.838058 23.7986 0.838058 25.4816C0.839138 25.8439 0.918338 26.2018 1.07026 26.5307L10.1558 25.0457L5.12116 21.974ZM26.1251 24.5L13.4801 26.561L16.8149 30.3548C22.2911 29.8643 26.3381 28.115 26.3381 25.4816C26.3381 25.1306 26.2625 24.8042 26.1251 24.5ZM11.3435 26.9165L2.79946 28.313C5.05786 29.7122 9.04396 30.5 13.5881 30.5C13.8635 30.5 14.1326 30.4922 14.4038 30.4865L11.3435 26.9165Z" fill="#44C6E9"/>
<path d="M13.5887 0.5C8.69866 0.5 4.68646 4.4999 4.68646 9.3788C4.68646 11.2544 5.28256 13.0016 6.28906 14.4383L12.0593 24.4133L12.0839 24.4454C12.3116 24.7427 12.5339 24.9773 12.7949 25.1498C13.0559 25.3226 13.3799 25.4258 13.6979 25.394C14.3333 25.3304 14.7224 24.8816 15.0917 24.3812L15.1115 24.3554L21.4817 13.5131L21.4853 13.5062C21.6347 13.2362 21.7451 12.9614 21.8387 12.6938C22.2684 11.6414 22.4895 10.5155 22.4897 9.3788C22.4897 4.4999 18.4787 0.5 13.5887 0.5ZM13.5887 5.6135C15.71 5.6135 17.3657 7.2662 17.3657 9.3785C17.3657 11.4914 15.71 13.1435 13.5887 13.1435C11.4671 13.1435 9.81046 11.4911 9.81046 9.3785C9.81046 7.2665 11.4674 5.6135 13.5887 5.6135Z" fill="#44C6E9"/>
<path d="M19.7042 21.5L18.548 23.6741L24.209 22.7486C23.0666 22.1756 21.5201 21.7661 19.7042 21.5ZM5.12116 21.974C2.49916 22.6655 0.838058 23.7986 0.838058 25.4816C0.839138 25.8439 0.918338 26.2018 1.07026 26.5307L10.1558 25.0457L5.12116 21.974ZM26.1251 24.5L13.4801 26.561L16.8149 30.3548C22.2911 29.8643 26.3381 28.115 26.3381 25.4816C26.3381 25.1306 26.2625 24.8042 26.1251 24.5ZM11.3435 26.9165L2.79946 28.313C5.05786 29.7122 9.04396 30.5 13.5881 30.5C13.8635 30.5 14.1326 30.4922 14.4038 30.4865L11.3435 26.9165Z" stroke="#44C6E9"/>
<path d="M13.5887 0.5C8.69866 0.5 4.68646 4.4999 4.68646 9.3788C4.68646 11.2544 5.28256 13.0016 6.28906 14.4383L12.0593 24.4133L12.0839 24.4454C12.3116 24.7427 12.5339 24.9773 12.7949 25.1498C13.0559 25.3226 13.3799 25.4258 13.6979 25.394C14.3333 25.3304 14.7224 24.8816 15.0917 24.3812L15.1115 24.3554L21.4817 13.5131L21.4853 13.5062C21.6347 13.2362 21.7451 12.9614 21.8387 12.6938C22.2684 11.6414 22.4895 10.5155 22.4897 9.3788C22.4897 4.4999 18.4787 0.5 13.5887 0.5ZM13.5887 5.6135C15.71 5.6135 17.3657 7.2662 17.3657 9.3785C17.3657 11.4914 15.71 13.1435 13.5887 13.1435C11.4671 13.1435 9.81046 11.4911 9.81046 9.3785C9.81046 7.2665 11.4674 5.6135 13.5887 5.6135Z" stroke="#44C6E9"/>
</svg>
