<svg width="33" height="47" viewBox="0 0 33 47" fill="none" xmlns="http://www.w3.org/2000/svg">
<path d="M31.5 16.5C31.5 24.8 16.5 44.8333 16.5 44.8333C16.5 44.8333 1.5 24.8 1.5 16.5C1.5 12.5218 3.08035 8.70644 5.8934 5.8934C8.70644 3.08035 12.5218 1.5 16.5 1.5C20.4782 1.5 24.2936 3.08035 27.1066 5.8934C29.9196 8.70644 31.5 12.5218 31.5 16.5Z" stroke="#555555" stroke-width="3" stroke-linecap="round" stroke-linejoin="round"/>
<path d="M16.5 21.5C19.2614 21.5 21.5 19.2614 21.5 16.5C21.5 13.7386 19.2614 11.5 16.5 11.5C13.7386 11.5 11.5 13.7386 11.5 16.5C11.5 19.2614 13.7386 21.5 16.5 21.5Z" stroke="#555555" stroke-width="3" stroke-linecap="round" stroke-linejoin="round"/>
</svg>
