<svg width="64" height="70" viewBox="0 0 64 70" fill="none" xmlns="http://www.w3.org/2000/svg">
<g clip-path="url(#clip0_12_511)">
<path fill-rule="evenodd" clip-rule="evenodd" d="M40.312 1.37244C35.3292 3.50723 28.1378 3.50722 23.155 1.37243C19.1065 -0.362067 14.5781 -0.522914 10.3997 1.2946C1.58198 5.13011 -2.37294 16.3387 1.46489 26.4498C1.46574 26.4521 1.4657 26.4546 1.46477 26.4568L2.66242 29.061C6.71089 37.8641 9.76248 47.0923 11.7603 56.5735L13.6608 65.5927C14.3185 68.1855 16.6426 70 19.3059 70C22.1662 70 24.6034 67.9137 25.0575 65.0765L27.7368 48.3363C28.0523 46.3647 29.7459 44.9149 31.7336 44.9149C33.7213 44.9149 35.4149 46.3647 35.7304 48.3363L38.4096 65.0765C38.8637 67.9137 41.3009 70 44.1612 70C46.8245 70 49.1486 68.1855 49.8063 65.5927L51.7068 56.5735C53.7046 47.0923 56.7562 37.8641 60.8047 29.061L62.0024 26.4568C62.0014 26.4546 62.0014 26.4521 62.0022 26.4498C65.8401 16.3387 61.8851 5.13011 53.0674 1.2946C48.889 -0.522933 44.3605 -0.362076 40.312 1.37244Z" fill="url(#paint0_linear_12_511)"/>
<mask id="mask0_12_511" style="mask-type:alpha" maskUnits="userSpaceOnUse" x="0" y="0" width="64" height="70">
<path fill-rule="evenodd" clip-rule="evenodd" d="M40.312 1.37244C35.3292 3.50723 28.1378 3.50722 23.155 1.37243C19.1065 -0.362067 14.5781 -0.522914 10.3997 1.2946C1.582 5.13011 -2.37292 16.3387 1.46491 26.4498C1.46576 26.4521 1.46572 26.4546 1.46479 26.4568L2.66244 29.061C6.71091 37.8641 9.76249 47.0923 11.7603 56.5735L13.6608 65.5927C14.3185 68.1855 16.6427 70 19.3059 70C22.1662 70 24.6034 67.9137 25.0575 65.0765L27.7368 48.3363C28.0523 46.3647 29.746 44.9149 31.7336 44.9149C33.7213 44.9149 35.4149 46.3647 35.7304 48.3363L38.4096 65.0765C38.8637 67.9137 41.3009 70 44.1613 70C46.8245 70 49.1486 68.1855 49.8063 65.5927L51.7068 56.5735C53.7047 47.0923 56.7562 37.8641 60.8047 29.061L62.0024 26.4568C62.0014 26.4546 62.0014 26.4521 62.0022 26.4498C65.8401 16.3387 61.8852 5.13011 53.0674 1.2946C48.889 -0.522933 44.3605 -0.362076 40.312 1.37244Z" fill="url(#paint1_linear_12_511)"/>
</mask>
<g mask="url(#mask0_12_511)">
<path d="M22 8.06153C22 7.51987 21.566 7.08482 21.0326 6.99036C17.9657 6.44719 15.6364 3.76834 15.6364 0.545455V-0.545455C15.6364 -3.55792 18.0785 -3 21.0909 -3C22.6777 -3 24.1062 -2.32245 25.1029 -1.24088C26.8972 -2.95047 29.326 -4 32 -4C34.674 -4 37.1028 -1.95048 38.8971 -0.240895C39.8938 -1.32246 41.3223 -2 42.9091 -2C45.9216 -2 48.3636 0.442082 48.3636 3.45454V4.54545C48.3636 7.78948 46.0037 10.4823 42.9069 11.0008C42.4065 11.0846 42 11.4926 42 12C42 17.5228 37.5229 22 32 22C26.4772 22 22 17.5228 22 12V8.06153Z" fill="url(#paint2_linear_12_511)"/>
</g>
</g>
<defs>
<linearGradient id="paint0_linear_12_511" x1="8.40023" y1="-8.38827e-08" x2="46.6669" y2="67.2" gradientUnits="userSpaceOnUse">
<stop stop-color="#F0F6F9"/>
<stop offset="1" stop-color="#CDDFF2"/>
</linearGradient>
<linearGradient id="paint1_linear_12_511" x1="8.40024" y1="-8.38827e-08" x2="46.6669" y2="67.2" gradientUnits="userSpaceOnUse">
<stop stop-color="#F0F6F9"/>
<stop offset="1" stop-color="#CDDFF2"/>
</linearGradient>
<linearGradient id="paint2_linear_12_511" x1="45.6364" y1="-4.63636" x2="34.926" y2="37.8359" gradientUnits="userSpaceOnUse">
<stop stop-color="#E6F0F8"/>
<stop offset="1" stop-color="#6F93BA"/>
</linearGradient>
<clipPath id="clip0_12_511">
<rect width="64" height="70" fill="white"/>
</clipPath>
</defs>
</svg>
