<svg width="47" height="31" viewBox="0 0 47 31" fill="none" xmlns="http://www.w3.org/2000/svg">
<path d="M31.9693 15.5633L43.5859 5.47073V25.5406L31.9693 15.5633ZM17.0005 17.2724L21.0798 20.8135C21.72 21.3574 22.5548 21.686 23.467 21.686H23.4991H23.5236C24.4377 21.686 25.2724 21.3555 25.9202 20.8078L25.9145 20.8116L29.9939 17.2705L42.3942 27.9202H4.60576L17.0005 17.2724ZM4.58877 3.0779H42.4169L24.2469 18.8588C24.0426 19.0204 23.7898 19.1083 23.5293 19.1081H23.5028H23.4783C23.2169 19.1085 22.9631 19.0199 22.7587 18.8569L22.7606 18.8588L4.58877 3.0779ZM3.41596 5.46884L15.0307 15.5614L3.41596 25.533V5.46884ZM44.2092 0.858829C43.7559 0.6322 43.2233 0.5 42.6586 0.5H4.34892C3.80154 0.500131 3.26168 0.627499 2.77196 0.872049L2.79273 0.862606C2.20647 1.15177 1.71275 1.59911 1.36734 2.1541C1.02193 2.70909 0.838601 3.34961 0.838058 4.0033V26.991C0.839058 27.9214 1.20907 28.8133 1.86692 29.4711C2.52476 30.129 3.4167 30.499 4.34703 30.5H42.653C43.5833 30.499 44.4752 30.129 45.1331 29.4711C45.7909 28.8133 46.1609 27.9214 46.1619 26.991V4.0033C46.1619 2.63031 45.3706 1.44051 44.2186 0.868272L44.1978 0.858829H44.2092Z" fill="#44C6E9"/>
</svg>
