<svg width="32" height="32" viewBox="0 0 32 32" fill="none" xmlns="http://www.w3.org/2000/svg">
<path d="M15.75 21.75V9.75002M9.75 18.75V12.75M21.75 18.75V12.75M23.25 2.75702C20.9707 1.43837 18.3832 0.74596 15.75 0.750018C7.4655 0.750018 0.75 7.46552 0.75 15.75C0.75 18.15 1.314 20.418 2.3145 22.4295C2.5815 22.9635 2.67 23.574 2.5155 24.1515L1.623 27.4905C1.53494 27.8209 1.53527 28.1685 1.62396 28.4987C1.71265 28.8289 1.88659 29.1299 2.12834 29.3717C2.37008 29.6134 2.67113 29.7874 3.0013 29.8761C3.33147 29.9648 3.67916 29.9651 4.0095 29.877L7.3485 28.9845C7.92811 28.8387 8.54104 28.9096 9.072 29.184C11.1464 30.217 13.4327 30.7531 15.75 30.75C24.0345 30.75 30.75 24.0345 30.75 15.75C30.75 13.0185 30.0195 10.455 28.743 8.25002" stroke="#555555" stroke-width="1.5" stroke-linecap="round"/>
</svg>
