<svg width="55" height="70" viewBox="0 0 55 70" fill="none" xmlns="http://www.w3.org/2000/svg">
<g clip-path="url(#clip0_12_478)">
<path d="M14.735 36.2118C15.0635 34.4142 16.6297 33.1082 18.4571 33.1082H36.4164C38.2388 33.1082 39.8008 34.4106 40.1283 36.2033C40.4554 37.9935 40.4338 39.884 41.1391 41.5616C42.0367 43.6965 43.9663 45.0995 45.8747 46.3144L8.87193 46.3736C10.7576 45.1731 12.7114 43.481 13.6591 41.4185C14.3845 39.8398 14.4019 38.0348 14.7142 36.3257L14.735 36.2118Z" fill="url(#paint0_linear_12_478)"/>
<path d="M14.735 36.2118C15.0635 34.4142 16.6297 33.1082 18.4571 33.1082H36.4164C38.2388 33.1082 39.8008 34.4106 40.1283 36.2033C40.4554 37.9935 40.4338 39.884 41.1391 41.5616C42.0367 43.6965 43.9663 45.0995 45.8747 46.3144L8.87193 46.3736C10.7576 45.1731 12.7114 43.481 13.6591 41.4185C14.3845 39.8398 14.4019 38.0348 14.7142 36.3257L14.735 36.2118Z" fill="url(#paint1_linear_12_478)" fill-opacity="0.4"/>
<path d="M14.735 36.2118C15.0635 34.4142 16.6297 33.1082 18.4571 33.1082H36.4164C38.2388 33.1082 39.8008 34.4106 40.1283 36.2033C40.4554 37.9935 40.4338 39.884 41.1391 41.5616C42.0367 43.6965 43.9663 45.0995 45.8747 46.3144L8.87193 46.3736C10.7576 45.1731 12.7114 43.481 13.6591 41.4185C14.3845 39.8398 14.4019 38.0348 14.7142 36.3257L14.735 36.2118Z" fill="url(#paint2_linear_12_478)" fill-opacity="0.05"/>
<path d="M47.1671 49.5102C47.5567 48.2911 47.0478 46.9694 45.9633 46.3544C45.8201 46.2733 45.6624 46.2226 45.5029 46.1823L31.5991 42.6732C28.8642 41.983 26.0007 41.983 23.2658 42.6732L9.36201 46.1822C9.20246 46.2224 9.04475 46.2731 8.90162 46.3543C7.81711 46.9693 7.30811 48.291 7.6978 49.51C8.94509 53.4118 9.53524 56.0955 10.5073 60.7127L11.6501 66.1412C12.224 68.4094 14.2506 69.9973 16.5739 70L16.5798 70L16.5856 70C19.0809 69.9971 21.2062 68.1714 21.6025 65.6893L23.9422 51.1758C24.2178 49.4495 25.6967 48.1114 27.4325 48.1114C29.1682 48.1114 30.6472 49.4495 30.9228 51.1758L33.2624 65.6892C33.6587 68.1714 35.784 69.9971 38.2793 70L38.2851 70L38.291 70C40.6143 69.9973 42.6409 68.4094 43.2148 66.1412L44.3576 60.7127C45.3296 56.0956 45.9198 53.4118 47.1671 49.5102Z" fill="url(#paint3_linear_12_478)"/>
<path d="M47.1671 49.5102C47.5567 48.2911 47.0478 46.9694 45.9633 46.3544C45.8201 46.2733 45.6624 46.2226 45.5029 46.1823L31.5991 42.6732C28.8642 41.983 26.0007 41.983 23.2658 42.6732L9.36201 46.1822C9.20246 46.2224 9.04475 46.2731 8.90162 46.3543C7.81711 46.9693 7.30811 48.291 7.6978 49.51C8.94509 53.4118 9.53524 56.0955 10.5073 60.7127L11.6501 66.1412C12.224 68.4094 14.2506 69.9973 16.5739 70L16.5798 70L16.5856 70C19.0809 69.9971 21.2062 68.1714 21.6025 65.6893L23.9422 51.1758C24.2178 49.4495 25.6967 48.1114 27.4325 48.1114C29.1682 48.1114 30.6472 49.4495 30.9228 51.1758L33.2624 65.6892C33.6587 68.1714 35.784 69.9971 38.2793 70L38.2851 70L38.291 70C40.6143 69.9973 42.6409 68.4094 43.2148 66.1412L44.3576 60.7127C45.3296 56.0956 45.9198 53.4118 47.1671 49.5102Z" fill="url(#paint4_radial_12_478)" fill-opacity="0.2"/>
<path d="M20.0165 1.20925C24.324 3.09022 30.5407 3.09023 34.8482 1.20926C36.6566 0.419599 38.5757 0.00011341 40.5066 0H40.5081C42.3137 0.000106051 44.1296 0.366924 45.8748 1.14068C53.499 4.52082 56.9177 14.4 53.5968 23.3102L53.5988 23.3111C53.2224 24.1463 52.8346 24.9851 52.4559 25.8275C51.8993 27.0655 50.5446 27.7058 49.2953 27.3211C49.157 27.2786 49.0196 27.2317 48.8788 27.1986L31.7618 23.1747C28.9144 22.5053 25.9505 22.5053 23.103 23.1747L5.98565 27.1986C5.8448 27.2317 5.70744 27.2786 5.56917 27.3211C4.31983 27.7058 2.96521 27.0655 2.40871 25.8274C2.03009 24.9851 1.64244 24.1463 1.26605 23.3111L1.2681 23.3102C-2.05286 14.4 1.36588 4.52082 8.99001 1.14068C12.6021 -0.460741 16.5168 -0.319019 20.0165 1.20925Z" fill="url(#paint5_linear_12_478)"/>
</g>
<defs>
<linearGradient id="paint0_linear_12_478" x1="27.4324" y1="31.8973" x2="27.4324" y2="45.973" gradientUnits="userSpaceOnUse">
<stop stop-color="#AAC8E3"/>
<stop offset="1" stop-color="#C8DBED"/>
</linearGradient>
<linearGradient id="paint1_linear_12_478" x1="11.5991" y1="37.6282" x2="16.3063" y2="37.6282" gradientUnits="userSpaceOnUse">
<stop stop-color="#F1F7FA"/>
<stop offset="1" stop-color="#F0F7FA" stop-opacity="0"/>
</linearGradient>
<linearGradient id="paint2_linear_12_478" x1="27.4324" y1="31.8973" x2="27.4324" y2="35.9838" gradientUnits="userSpaceOnUse">
<stop stop-color="#065099"/>
<stop offset="1" stop-color="#065099" stop-opacity="0"/>
</linearGradient>
<linearGradient id="paint3_linear_12_478" x1="11.4114" y1="30.6004" x2="27.7355" y2="69.874" gradientUnits="userSpaceOnUse">
<stop stop-color="#E8F2F8"/>
<stop offset="1" stop-color="#CDDFF2"/>
</linearGradient>
<radialGradient id="paint4_radial_12_478" cx="0" cy="0" r="1" gradientTransform="matrix(4.76295 14.0087 -17.3041 6.0139 22.6693 37.6048)" gradientUnits="userSpaceOnUse">
<stop stop-color="white"/>
<stop offset="1" stop-color="#EDF5F8" stop-opacity="0"/>
</radialGradient>
<linearGradient id="paint5_linear_12_478" x1="9.42969" y1="4.40552" x2="48.6809" y2="30.7136" gradientUnits="userSpaceOnUse">
<stop stop-color="#F0F6F9"/>
<stop offset="1" stop-color="#CDDFF2"/>
</linearGradient>
<clipPath id="clip0_12_478">
<rect width="54.8649" height="70" fill="white"/>
</clipPath>
</defs>
</svg>
