<svg width="33" height="36" viewBox="0 0 33 36" fill="none" xmlns="http://www.w3.org/2000/svg">
<path d="M20.259 1.20312C22.3281 0.31667 24.6572 0.229412 26.8108 1.16602C31.3017 3.11946 33.2661 8.72077 31.4592 13.75L31.4709 13.7773L31.3782 13.9775L30.8 15.2344C28.8617 19.4491 27.4011 23.8678 26.4446 28.4072L25.5276 32.7598L25.5247 32.7695L25.5227 32.7793C25.1494 34.2509 23.8292 35.2841 22.3137 35.2842C20.6859 35.2842 19.3019 34.0965 19.0442 32.4863L17.7512 24.4072C17.6375 23.6966 17.0276 23.1768 16.3157 23.1768C15.6037 23.1768 14.9939 23.6966 14.8801 24.4072L13.5872 32.4863C13.3294 34.0965 11.9454 35.2842 10.3176 35.2842C8.80206 35.2842 7.48196 34.251 7.10864 32.7793L7.10571 32.7695L7.10376 32.7598L6.18677 28.4072C5.23025 23.8678 3.7696 19.4491 1.8313 15.2344L1.25317 13.9775L1.1604 13.7773L1.17114 13.75C-0.635577 8.72088 1.32882 3.11949 5.81958 1.16602C7.97332 0.229183 10.3031 0.316592 12.3723 1.20312C14.6514 2.17947 17.98 2.17953 20.259 1.20312Z" fill="url(#paint0_linear_30_271)" stroke="#44C6E9"/>
<defs>
<linearGradient id="paint0_linear_30_271" x1="5.0543" y1="1" x2="23.5228" y2="33.4324" gradientUnits="userSpaceOnUse">
<stop stop-color="#F0F6F9"/>
<stop offset="1" stop-color="#CDDFF2"/>
</linearGradient>
</defs>
</svg>
