<svg width="90" height="70" viewBox="0 0 90 70" fill="none" xmlns="http://www.w3.org/2000/svg">
<rect x="42.459" y="22.9509" width="11.4754" height="6.88524" rx="2" transform="rotate(90 42.459 22.9509)" fill="url(#paint0_linear_12_489)"/>
<rect x="57.377" y="22.9509" width="11.4754" height="6.88524" rx="2" transform="rotate(90 57.377 22.9509)" fill="url(#paint1_linear_12_489)"/>
<path d="M82.7403 18.3389C82.3082 8.08801 73.872 8.4367e-07 63.612 0C53.1643 -8.59112e-07 44.6457 8.37616 44.4695 18.8225L43.8033 58.3311C43.6952 64.7436 48.8637 70 55.2771 70H72.9487C79.476 70 84.6888 64.5628 84.4139 58.0413L82.7403 18.3389Z" fill="url(#paint2_linear_12_489)"/>
<path d="M6.77571 18.1968C7.20484 8.02526 15.5758 8.37145e-07 25.7565 0C36.2486 -8.62757e-07 44.7541 8.50553 44.7541 18.9976L44.7541 58.5246C44.7541 64.8623 39.6164 70 33.2787 70H16.5599C10.0325 70 4.81959 64.5626 5.09473 58.0409L6.77571 18.1968Z" fill="url(#paint3_linear_12_489)"/>
<path fill-rule="evenodd" clip-rule="evenodd" d="M1.07857 30.5058C1.97619 29.2002 3.76228 28.8694 5.06791 29.767C9.56795 32.8608 24.374 39.5901 45.2906 39.5901C66.2093 39.5901 80.2582 32.8612 84.3585 29.8254C85.6319 28.8826 87.4284 29.1506 88.3712 30.424C89.314 31.6974 89.046 33.494 87.7726 34.4368C82.5734 38.2862 67.2929 45.3278 45.2906 45.3278C23.2862 45.3278 7.3322 38.2866 1.81733 34.4951C0.511703 33.5975 0.180946 31.8114 1.07857 30.5058Z" fill="url(#paint4_linear_12_489)"/>
<path fill-rule="evenodd" clip-rule="evenodd" d="M88.4296 30.5058C87.532 29.2002 85.7459 28.8694 84.4403 29.767C79.9403 32.8608 65.1342 39.5901 44.2176 39.5901C23.2989 39.5901 9.25003 32.8612 5.14975 29.8254C3.87635 28.8826 2.07978 29.1506 1.13698 30.424C0.194177 31.6974 0.462178 33.494 1.73557 34.4368C6.93484 38.2862 22.2153 45.3278 44.2176 45.3278C66.222 45.3278 82.176 38.2866 87.6909 34.4951C88.9965 33.5975 89.3273 31.8114 88.4296 30.5058Z" fill="url(#paint5_radial_12_489)" fill-opacity="0.3"/>
<path fill-rule="evenodd" clip-rule="evenodd" d="M88.4296 30.5058C87.532 29.2002 85.7459 28.8694 84.4403 29.767C79.9403 32.8608 65.1342 39.5901 44.2176 39.5901C23.2989 39.5901 9.25003 32.8612 5.14975 29.8254C3.87635 28.8826 2.07978 29.1506 1.13698 30.424C0.194177 31.6974 0.462178 33.494 1.73557 34.4368C6.93484 38.2862 22.2153 45.3278 44.2176 45.3278C66.222 45.3278 82.176 38.2866 87.6909 34.4951C88.9965 33.5975 89.3273 31.8114 88.4296 30.5058Z" fill="url(#paint6_radial_12_489)" fill-opacity="0.3"/>
<path d="M14.1171 33.3022C13.9593 31.7238 15.532 30.5406 17.0048 31.1297C22.2951 33.2459 28.1967 33.2459 33.487 31.1297C34.9598 30.5406 36.5325 31.7238 36.3747 33.3022L36.1205 35.8441C35.7569 39.4799 35.7569 43.1429 36.1205 46.7788L36.3747 49.3207C36.5325 50.8991 34.9598 52.0822 33.487 51.4931C28.1967 49.377 22.2951 49.377 17.0048 51.4931C15.532 52.0822 13.9593 50.8991 14.1171 49.3207L14.3713 46.7788C14.7349 43.1429 14.7349 39.4799 14.3713 35.8441L14.1171 33.3022Z" fill="#B4A9FC"/>
<g filter="url(#filter0_d_12_489)">
<path d="M18.3607 40.1639C18.3607 37.6288 20.4158 35.5737 22.9508 35.5737H27.541C30.0761 35.5737 32.1312 37.6288 32.1312 40.1639V42.459C32.1312 44.9941 30.0761 47.0491 27.541 47.0491H22.9508C20.4158 47.0491 18.3607 44.9941 18.3607 42.459V40.1639Z" fill="url(#paint7_linear_12_489)"/>
<path d="M22.9505 36.5737H27.5413C29.5239 36.5739 31.131 38.181 31.1312 40.1636V42.4585C31.1312 44.4412 29.524 46.0491 27.5413 46.0493H22.9505C20.9679 46.0491 19.3607 44.4412 19.3607 42.4585V40.1636L19.3656 39.979C19.4618 38.0822 21.0299 36.5739 22.9505 36.5737Z" stroke="url(#paint8_radial_12_489)" stroke-width="2"/>
</g>
<g filter="url(#filter1_d_12_489)">
<path d="M27.541 33.8525C27.541 32.2681 28.8255 30.9836 30.4099 30.9836C31.9943 30.9836 33.2787 32.2681 33.2787 33.8525V37.2951C33.2787 38.8795 31.9943 40.164 30.4099 40.164C28.8255 40.164 27.541 38.8795 27.541 37.2951V33.8525Z" fill="url(#paint9_linear_12_489)"/>
</g>
<g filter="url(#filter2_d_12_489)">
<path d="M27.541 45.3278C27.541 43.7434 28.8255 42.459 30.4099 42.459C31.9943 42.459 33.2787 43.7434 33.2787 45.3278V48.7705C33.2787 50.3549 31.9943 51.6393 30.4099 51.6393C28.8255 51.6393 27.541 50.3549 27.541 48.7705V45.3278Z" fill="url(#paint10_linear_12_489)"/>
</g>
<g filter="url(#filter3_d_12_489)">
<path d="M17.2132 45.3278C17.2132 43.7434 18.4976 42.459 20.082 42.459C21.6664 42.459 22.9509 43.7434 22.9509 45.3278V48.7705C22.9509 50.3549 21.6664 51.6393 20.082 51.6393C18.4976 51.6393 17.2132 50.3549 17.2132 48.7705V45.3278Z" fill="url(#paint11_linear_12_489)"/>
</g>
<g filter="url(#filter4_d_12_489)">
<path d="M17.2132 33.8525C17.2132 32.2681 18.4976 30.9836 20.082 30.9836C21.6664 30.9836 22.9509 32.2681 22.9509 33.8525V37.2951C22.9509 38.8795 21.6664 40.164 20.082 40.164C18.4976 40.164 17.2132 38.8795 17.2132 37.2951V33.8525Z" fill="url(#paint12_linear_12_489)"/>
</g>
<path d="M53.1335 33.3022C52.9757 31.7238 54.5484 30.5406 56.0212 31.1297C61.3115 33.2459 67.2131 33.2459 72.5034 31.1297C73.9763 30.5406 75.549 31.7238 75.3911 33.3022L75.1369 35.8441C74.7733 39.4799 74.7733 43.1429 75.1369 46.7788L75.3911 49.3206C75.549 50.8991 73.9763 52.0822 72.5034 51.4931C67.2131 49.377 61.3115 49.377 56.0212 51.4931C54.5484 52.0822 52.9757 50.8991 53.1335 49.3207L53.3877 46.7788C53.7513 43.1429 53.7513 39.4799 53.3877 35.8441L53.1335 33.3022Z" fill="#B4A9FC"/>
<g filter="url(#filter5_d_12_489)">
<rect x="57.377" y="35.5737" width="13.7705" height="11.4754" rx="4" fill="url(#paint13_linear_12_489)"/>
<rect x="58.377" y="36.5737" width="11.7705" height="9.47541" rx="3" stroke="url(#paint14_radial_12_489)" stroke-width="2"/>
</g>
<g filter="url(#filter6_d_12_489)">
<path d="M66.5574 33.8525C66.5574 32.2681 67.8418 30.9836 69.4263 30.9836C71.0107 30.9836 72.2951 32.2681 72.2951 33.8525V37.2951C72.2951 38.8795 71.0107 40.164 69.4263 40.164C67.8418 40.164 66.5574 38.8795 66.5574 37.2951V33.8525Z" fill="url(#paint15_linear_12_489)"/>
</g>
<g filter="url(#filter7_d_12_489)">
<path d="M66.5574 45.3278C66.5574 43.7434 67.8418 42.459 69.4263 42.459C71.0107 42.459 72.2951 43.7434 72.2951 45.3278V48.7705C72.2951 50.3549 71.0107 51.6393 69.4263 51.6393C67.8418 51.6393 66.5574 50.3549 66.5574 48.7705V45.3278Z" fill="url(#paint16_linear_12_489)"/>
</g>
<g filter="url(#filter8_d_12_489)">
<path d="M56.2295 45.3278C56.2295 43.7434 57.514 42.459 59.0984 42.459C60.6828 42.459 61.9672 43.7434 61.9672 45.3278V48.7705C61.9672 50.3549 60.6828 51.6393 59.0984 51.6393C57.514 51.6393 56.2295 50.3549 56.2295 48.7705V45.3278Z" fill="url(#paint17_linear_12_489)"/>
</g>
<g filter="url(#filter9_d_12_489)">
<path d="M56.2295 33.8525C56.2295 32.2681 57.514 30.9836 59.0984 30.9836C60.6828 30.9836 61.9672 32.2681 61.9672 33.8525V37.2951C61.9672 38.8795 60.6828 40.164 59.0984 40.164C57.514 40.164 56.2295 38.8795 56.2295 37.2951V33.8525Z" fill="url(#paint18_linear_12_489)"/>
</g>
<defs>
<filter id="filter0_d_12_489" x="10.3607" y="31.5737" width="29.7705" height="27.4753" filterUnits="userSpaceOnUse" color-interpolation-filters="sRGB">
<feFlood flood-opacity="0" result="BackgroundImageFix"/>
<feColorMatrix in="SourceAlpha" type="matrix" values="0 0 0 0 0 0 0 0 0 0 0 0 0 0 0 0 0 0 127 0" result="hardAlpha"/>
<feOffset dy="4"/>
<feGaussianBlur stdDeviation="4"/>
<feComposite in2="hardAlpha" operator="out"/>
<feColorMatrix type="matrix" values="0 0 0 0 0.148194 0 0 0 0 0.235583 0 0 0 0 0.585139 0 0 0 0.13 0"/>
<feBlend mode="normal" in2="BackgroundImageFix" result="effect1_dropShadow_12_489"/>
<feBlend mode="normal" in="SourceGraphic" in2="effect1_dropShadow_12_489" result="shape"/>
</filter>
<filter id="filter1_d_12_489" x="19.541" y="26.9836" width="21.7377" height="25.1804" filterUnits="userSpaceOnUse" color-interpolation-filters="sRGB">
<feFlood flood-opacity="0" result="BackgroundImageFix"/>
<feColorMatrix in="SourceAlpha" type="matrix" values="0 0 0 0 0 0 0 0 0 0 0 0 0 0 0 0 0 0 127 0" result="hardAlpha"/>
<feOffset dy="4"/>
<feGaussianBlur stdDeviation="4"/>
<feComposite in2="hardAlpha" operator="out"/>
<feColorMatrix type="matrix" values="0 0 0 0 0.148194 0 0 0 0 0.235583 0 0 0 0 0.585139 0 0 0 0.13 0"/>
<feBlend mode="normal" in2="BackgroundImageFix" result="effect1_dropShadow_12_489"/>
<feBlend mode="normal" in="SourceGraphic" in2="effect1_dropShadow_12_489" result="shape"/>
</filter>
<filter id="filter2_d_12_489" x="19.541" y="38.459" width="21.7377" height="25.1804" filterUnits="userSpaceOnUse" color-interpolation-filters="sRGB">
<feFlood flood-opacity="0" result="BackgroundImageFix"/>
<feColorMatrix in="SourceAlpha" type="matrix" values="0 0 0 0 0 0 0 0 0 0 0 0 0 0 0 0 0 0 127 0" result="hardAlpha"/>
<feOffset dy="4"/>
<feGaussianBlur stdDeviation="4"/>
<feComposite in2="hardAlpha" operator="out"/>
<feColorMatrix type="matrix" values="0 0 0 0 0.148194 0 0 0 0 0.235583 0 0 0 0 0.585139 0 0 0 0.13 0"/>
<feBlend mode="normal" in2="BackgroundImageFix" result="effect1_dropShadow_12_489"/>
<feBlend mode="normal" in="SourceGraphic" in2="effect1_dropShadow_12_489" result="shape"/>
</filter>
<filter id="filter3_d_12_489" x="9.21317" y="38.459" width="21.7377" height="25.1804" filterUnits="userSpaceOnUse" color-interpolation-filters="sRGB">
<feFlood flood-opacity="0" result="BackgroundImageFix"/>
<feColorMatrix in="SourceAlpha" type="matrix" values="0 0 0 0 0 0 0 0 0 0 0 0 0 0 0 0 0 0 127 0" result="hardAlpha"/>
<feOffset dy="4"/>
<feGaussianBlur stdDeviation="4"/>
<feComposite in2="hardAlpha" operator="out"/>
<feColorMatrix type="matrix" values="0 0 0 0 0.148194 0 0 0 0 0.235583 0 0 0 0 0.585139 0 0 0 0.13 0"/>
<feBlend mode="normal" in2="BackgroundImageFix" result="effect1_dropShadow_12_489"/>
<feBlend mode="normal" in="SourceGraphic" in2="effect1_dropShadow_12_489" result="shape"/>
</filter>
<filter id="filter4_d_12_489" x="9.21317" y="26.9836" width="21.7377" height="25.1804" filterUnits="userSpaceOnUse" color-interpolation-filters="sRGB">
<feFlood flood-opacity="0" result="BackgroundImageFix"/>
<feColorMatrix in="SourceAlpha" type="matrix" values="0 0 0 0 0 0 0 0 0 0 0 0 0 0 0 0 0 0 127 0" result="hardAlpha"/>
<feOffset dy="4"/>
<feGaussianBlur stdDeviation="4"/>
<feComposite in2="hardAlpha" operator="out"/>
<feColorMatrix type="matrix" values="0 0 0 0 0.148194 0 0 0 0 0.235583 0 0 0 0 0.585139 0 0 0 0.13 0"/>
<feBlend mode="normal" in2="BackgroundImageFix" result="effect1_dropShadow_12_489"/>
<feBlend mode="normal" in="SourceGraphic" in2="effect1_dropShadow_12_489" result="shape"/>
</filter>
<filter id="filter5_d_12_489" x="49.377" y="31.5737" width="29.7705" height="27.4753" filterUnits="userSpaceOnUse" color-interpolation-filters="sRGB">
<feFlood flood-opacity="0" result="BackgroundImageFix"/>
<feColorMatrix in="SourceAlpha" type="matrix" values="0 0 0 0 0 0 0 0 0 0 0 0 0 0 0 0 0 0 127 0" result="hardAlpha"/>
<feOffset dy="4"/>
<feGaussianBlur stdDeviation="4"/>
<feComposite in2="hardAlpha" operator="out"/>
<feColorMatrix type="matrix" values="0 0 0 0 0.148194 0 0 0 0 0.235583 0 0 0 0 0.585139 0 0 0 0.13 0"/>
<feBlend mode="normal" in2="BackgroundImageFix" result="effect1_dropShadow_12_489"/>
<feBlend mode="normal" in="SourceGraphic" in2="effect1_dropShadow_12_489" result="shape"/>
</filter>
<filter id="filter6_d_12_489" x="58.5574" y="26.9836" width="21.7377" height="25.1804" filterUnits="userSpaceOnUse" color-interpolation-filters="sRGB">
<feFlood flood-opacity="0" result="BackgroundImageFix"/>
<feColorMatrix in="SourceAlpha" type="matrix" values="0 0 0 0 0 0 0 0 0 0 0 0 0 0 0 0 0 0 127 0" result="hardAlpha"/>
<feOffset dy="4"/>
<feGaussianBlur stdDeviation="4"/>
<feComposite in2="hardAlpha" operator="out"/>
<feColorMatrix type="matrix" values="0 0 0 0 0.148194 0 0 0 0 0.235583 0 0 0 0 0.585139 0 0 0 0.13 0"/>
<feBlend mode="normal" in2="BackgroundImageFix" result="effect1_dropShadow_12_489"/>
<feBlend mode="normal" in="SourceGraphic" in2="effect1_dropShadow_12_489" result="shape"/>
</filter>
<filter id="filter7_d_12_489" x="58.5574" y="38.459" width="21.7377" height="25.1804" filterUnits="userSpaceOnUse" color-interpolation-filters="sRGB">
<feFlood flood-opacity="0" result="BackgroundImageFix"/>
<feColorMatrix in="SourceAlpha" type="matrix" values="0 0 0 0 0 0 0 0 0 0 0 0 0 0 0 0 0 0 127 0" result="hardAlpha"/>
<feOffset dy="4"/>
<feGaussianBlur stdDeviation="4"/>
<feComposite in2="hardAlpha" operator="out"/>
<feColorMatrix type="matrix" values="0 0 0 0 0.148194 0 0 0 0 0.235583 0 0 0 0 0.585139 0 0 0 0.13 0"/>
<feBlend mode="normal" in2="BackgroundImageFix" result="effect1_dropShadow_12_489"/>
<feBlend mode="normal" in="SourceGraphic" in2="effect1_dropShadow_12_489" result="shape"/>
</filter>
<filter id="filter8_d_12_489" x="48.2295" y="38.459" width="21.7377" height="25.1804" filterUnits="userSpaceOnUse" color-interpolation-filters="sRGB">
<feFlood flood-opacity="0" result="BackgroundImageFix"/>
<feColorMatrix in="SourceAlpha" type="matrix" values="0 0 0 0 0 0 0 0 0 0 0 0 0 0 0 0 0 0 127 0" result="hardAlpha"/>
<feOffset dy="4"/>
<feGaussianBlur stdDeviation="4"/>
<feComposite in2="hardAlpha" operator="out"/>
<feColorMatrix type="matrix" values="0 0 0 0 0.148194 0 0 0 0 0.235583 0 0 0 0 0.585139 0 0 0 0.13 0"/>
<feBlend mode="normal" in2="BackgroundImageFix" result="effect1_dropShadow_12_489"/>
<feBlend mode="normal" in="SourceGraphic" in2="effect1_dropShadow_12_489" result="shape"/>
</filter>
<filter id="filter9_d_12_489" x="48.2295" y="26.9836" width="21.7377" height="25.1804" filterUnits="userSpaceOnUse" color-interpolation-filters="sRGB">
<feFlood flood-opacity="0" result="BackgroundImageFix"/>
<feColorMatrix in="SourceAlpha" type="matrix" values="0 0 0 0 0 0 0 0 0 0 0 0 0 0 0 0 0 0 127 0" result="hardAlpha"/>
<feOffset dy="4"/>
<feGaussianBlur stdDeviation="4"/>
<feComposite in2="hardAlpha" operator="out"/>
<feColorMatrix type="matrix" values="0 0 0 0 0.148194 0 0 0 0 0.235583 0 0 0 0 0.585139 0 0 0 0.13 0"/>
<feBlend mode="normal" in2="BackgroundImageFix" result="effect1_dropShadow_12_489"/>
<feBlend mode="normal" in="SourceGraphic" in2="effect1_dropShadow_12_489" result="shape"/>
</filter>
<linearGradient id="paint0_linear_12_489" x1="46.1545" y1="22.9509" x2="48.6485" y2="23.1187" gradientUnits="userSpaceOnUse">
<stop stop-color="#E2E6F3"/>
<stop offset="1" stop-color="#D5DAF0"/>
</linearGradient>
<linearGradient id="paint1_linear_12_489" x1="61.0725" y1="22.9509" x2="63.5665" y2="23.1187" gradientUnits="userSpaceOnUse">
<stop stop-color="#E2E6F3"/>
<stop offset="1" stop-color="#D5DAF0"/>
</linearGradient>
<linearGradient id="paint2_linear_12_489" x1="43.6066" y1="22.377" x2="69.1024" y2="45.5089" gradientUnits="userSpaceOnUse">
<stop stop-color="#F0F6F9"/>
<stop offset="1" stop-color="#CDDFF2"/>
</linearGradient>
<linearGradient id="paint3_linear_12_489" x1="2.2951" y1="18.9344" x2="35.4267" y2="56.5648" gradientUnits="userSpaceOnUse">
<stop stop-color="#F0F6F9"/>
<stop offset="1" stop-color="#CDDFF2"/>
</linearGradient>
<linearGradient id="paint4_linear_12_489" x1="44.7541" y1="32.1311" x2="44.1803" y2="47.0491" gradientUnits="userSpaceOnUse">
<stop stop-color="#E3E7F6"/>
<stop offset="1" stop-color="#C7CCDF"/>
</linearGradient>
<radialGradient id="paint5_radial_12_489" cx="0" cy="0" r="1" gradientUnits="userSpaceOnUse" gradientTransform="translate(63.1148 41.3114) rotate(177.879) scale(15.5024 85.2623)">
<stop stop-color="#ADB6DA"/>
<stop offset="1" stop-color="#626D97" stop-opacity="0"/>
</radialGradient>
<radialGradient id="paint6_radial_12_489" cx="0" cy="0" r="1" gradientUnits="userSpaceOnUse" gradientTransform="translate(63.1148 41.3114) rotate(177.879) scale(15.5024 85.2623)">
<stop stop-color="#ADB6DA"/>
<stop offset="1" stop-color="#626D97" stop-opacity="0"/>
</radialGradient>
<linearGradient id="paint7_linear_12_489" x1="23.8928" y1="35.5419" x2="27.6079" y2="47.6425" gradientUnits="userSpaceOnUse">
<stop stop-color="#F2F5FF"/>
<stop offset="1" stop-color="#D6DBF1"/>
</linearGradient>
<radialGradient id="paint8_radial_12_489" cx="0" cy="0" r="1" gradientTransform="matrix(-11.4132 12.8859 -15.4631 -9.51104 29.7835 27.565)" gradientUnits="userSpaceOnUse">
<stop stop-color="white"/>
<stop offset="1" stop-color="white" stop-opacity="0"/>
</radialGradient>
<linearGradient id="paint9_linear_12_489" x1="29.846" y1="30.9582" x2="34.4801" y2="38.8195" gradientUnits="userSpaceOnUse">
<stop stop-color="#F2F5FF"/>
<stop offset="0.151042" stop-color="#F8F9FE"/>
<stop offset="1" stop-color="#D6DBF1"/>
</linearGradient>
<linearGradient id="paint10_linear_12_489" x1="29.846" y1="42.4335" x2="34.4801" y2="50.2948" gradientUnits="userSpaceOnUse">
<stop stop-color="#F2F5FF"/>
<stop offset="0.151042" stop-color="#F8F9FE"/>
<stop offset="1" stop-color="#D6DBF1"/>
</linearGradient>
<linearGradient id="paint11_linear_12_489" x1="19.5182" y1="42.4335" x2="24.1522" y2="50.2948" gradientUnits="userSpaceOnUse">
<stop stop-color="#F2F5FF"/>
<stop offset="0.151042" stop-color="#F8F9FE"/>
<stop offset="1" stop-color="#D6DBF1"/>
</linearGradient>
<linearGradient id="paint12_linear_12_489" x1="19.5182" y1="30.9582" x2="24.1522" y2="38.8195" gradientUnits="userSpaceOnUse">
<stop stop-color="#F2F5FF"/>
<stop offset="0.151042" stop-color="#F8F9FE"/>
<stop offset="1" stop-color="#D6DBF1"/>
</linearGradient>
<linearGradient id="paint13_linear_12_489" x1="62.9092" y1="35.5419" x2="66.6243" y2="47.6425" gradientUnits="userSpaceOnUse">
<stop stop-color="#F2F5FF"/>
<stop offset="1" stop-color="#D6DBF1"/>
</linearGradient>
<radialGradient id="paint14_radial_12_489" cx="0" cy="0" r="1" gradientTransform="matrix(-11.4132 12.8859 -15.4631 -9.51104 68.7999 27.565)" gradientUnits="userSpaceOnUse">
<stop stop-color="white"/>
<stop offset="1" stop-color="white" stop-opacity="0"/>
</radialGradient>
<linearGradient id="paint15_linear_12_489" x1="68.8624" y1="30.9582" x2="73.4964" y2="38.8195" gradientUnits="userSpaceOnUse">
<stop stop-color="#F2F5FF"/>
<stop offset="0.151042" stop-color="#F8F9FE"/>
<stop offset="1" stop-color="#D6DBF1"/>
</linearGradient>
<linearGradient id="paint16_linear_12_489" x1="68.8624" y1="42.4335" x2="73.4964" y2="50.2948" gradientUnits="userSpaceOnUse">
<stop stop-color="#F2F5FF"/>
<stop offset="0.151042" stop-color="#F8F9FE"/>
<stop offset="1" stop-color="#D6DBF1"/>
</linearGradient>
<linearGradient id="paint17_linear_12_489" x1="58.5345" y1="42.4335" x2="63.1686" y2="50.2948" gradientUnits="userSpaceOnUse">
<stop stop-color="#F2F5FF"/>
<stop offset="0.151042" stop-color="#F8F9FE"/>
<stop offset="1" stop-color="#D6DBF1"/>
</linearGradient>
<linearGradient id="paint18_linear_12_489" x1="58.5345" y1="30.9582" x2="63.1686" y2="38.8195" gradientUnits="userSpaceOnUse">
<stop stop-color="#F2F5FF"/>
<stop offset="0.151042" stop-color="#F8F9FE"/>
<stop offset="1" stop-color="#D6DBF1"/>
</linearGradient>
</defs>
</svg>
