<svg width="33" height="33" viewBox="0 0 33 33" fill="none" xmlns="http://www.w3.org/2000/svg">
<path d="M30.7103 22.4577L23.3321 19.1561C23.046 19.0323 22.7337 18.9818 22.4232 19.0091C22.1127 19.0363 21.814 19.1406 21.5539 19.3123C21.5331 19.3255 21.5133 19.3401 21.4946 19.3561L17.6195 22.6593C17.5333 22.7119 17.4354 22.7424 17.3345 22.7481C17.2337 22.7538 17.133 22.7346 17.0414 22.6921C14.5038 21.4671 11.8773 18.8608 10.6522 16.3529C10.6089 16.262 10.5888 16.1617 10.5937 16.0611C10.5986 15.9605 10.6284 15.8627 10.6804 15.7764L13.9929 11.8373C14.0085 11.8185 14.0226 11.7982 14.0367 11.7779C14.2079 11.5182 14.3118 11.22 14.3391 10.9101C14.3664 10.6003 14.3161 10.2885 14.1929 10.0029L10.8851 2.63716C10.7254 2.2641 10.449 1.95292 10.0973 1.75034C9.74571 1.54777 9.33786 1.46473 8.93503 1.51371C6.96871 1.77296 5.164 2.73913 3.85799 4.23176C2.55197 5.72439 1.83396 7.6414 1.83808 9.62474C1.83808 21.6874 11.6507 31.5 23.7133 31.5C25.6967 31.5041 27.6137 30.7861 29.1063 29.4801C30.5989 28.1741 31.5651 26.3693 31.8244 24.403C31.873 24.002 31.7908 23.5961 31.5901 23.2455C31.3893 22.895 31.0807 22.6187 30.7103 22.4577ZM30.5884 24.2468C30.3678 25.912 29.5482 27.4399 28.2828 28.5448C27.0175 29.6496 25.3931 30.2558 23.7133 30.25C12.3413 30.25 3.08809 20.9967 3.08809 9.62474C3.08227 7.94495 3.68845 6.32054 4.79331 5.05522C5.89816 3.78991 7.42604 2.97031 9.09128 2.74966C9.11626 2.74811 9.14131 2.74811 9.16628 2.74966C9.28959 2.75071 9.40982 2.78821 9.51186 2.85744C9.6139 2.92667 9.69318 3.02454 9.73973 3.13873L13.0382 10.5044C13.0767 10.5945 13.0935 10.6923 13.0872 10.79C13.081 10.8877 13.0519 10.9825 13.0023 11.0669L9.69129 15.0045C9.67567 15.0248 9.66004 15.0435 9.64598 15.0654C9.46958 15.3352 9.3657 15.6458 9.34435 15.9674C9.323 16.289 9.38491 16.6107 9.5241 16.9014C10.8819 19.6811 13.682 22.4608 16.4929 23.8186C16.7856 23.9569 17.1091 24.0171 17.4319 23.9933C17.7548 23.9695 18.0659 23.8625 18.3351 23.6827L18.393 23.639L22.2727 20.3389C22.3557 20.2882 22.4495 20.258 22.5465 20.2506C22.6435 20.2433 22.7408 20.2591 22.8305 20.2967L30.2071 23.603C30.3316 23.6548 30.436 23.7455 30.5047 23.8615C30.5735 23.9776 30.6028 24.1127 30.5884 24.2468Z" stroke="#44C6E9" stroke-width="2"/>
</svg>
