<svg width="30" height="30" viewBox="0 0 30 30" fill="none" xmlns="http://www.w3.org/2000/svg">
<mask id="path-1-inside-1_30_194" fill="white">
<path d="M18.3982 1.90445C18.4293 1.78783 18.4831 1.67848 18.5565 1.58266C18.6298 1.48684 18.7214 1.40642 18.8259 1.346C18.9304 1.28558 19.0457 1.24636 19.1654 1.23056C19.285 1.21476 19.4066 1.2227 19.5232 1.25393C21.7414 1.83254 23.7652 2.99206 25.3862 4.61303C27.0072 6.234 28.1667 8.25781 28.7453 10.476C28.7765 10.5926 28.7845 10.7142 28.7687 10.8338C28.7529 10.9535 28.7136 11.0689 28.6532 11.1733C28.5928 11.2778 28.5124 11.3694 28.4166 11.4428C28.3207 11.5161 28.2114 11.5699 28.0948 11.601C28.0174 11.6216 27.9376 11.6319 27.8575 11.6316C27.6552 11.6317 27.4585 11.565 27.2979 11.4419C27.1374 11.3187 27.022 11.146 26.9697 10.9505C26.473 9.04514 25.4771 7.30672 24.0848 5.9144C22.6925 4.52208 20.9541 3.52622 19.0487 3.02947C18.9321 2.99837 18.8228 2.9446 18.7269 2.87122C18.6311 2.79783 18.5507 2.70628 18.4903 2.6018C18.4299 2.49731 18.3906 2.38195 18.3748 2.26229C18.359 2.14263 18.367 2.02104 18.3982 1.90445ZM17.8242 7.92749C20.0513 8.52137 21.4778 9.94792 22.0717 12.175C22.124 12.3705 22.2394 12.5432 22.3999 12.6664C22.5604 12.7895 22.7571 12.8562 22.9595 12.8561C23.0396 12.8564 23.1194 12.8461 23.1967 12.8255C23.3134 12.7944 23.4227 12.7406 23.5185 12.6673C23.6144 12.5939 23.6948 12.5023 23.7552 12.3978C23.8156 12.2934 23.8548 12.178 23.8706 12.0583C23.8864 11.9387 23.8785 11.8171 23.8473 11.7005C23.0819 8.83668 21.1625 6.91727 18.2987 6.15195C18.1821 6.1208 18.0606 6.11291 17.9409 6.12874C17.8213 6.14457 17.7059 6.18381 17.6015 6.24422C17.3905 6.36621 17.2366 6.56702 17.1737 6.80247C17.1108 7.03792 17.144 7.28873 17.266 7.49971C17.388 7.71069 17.5888 7.86457 17.8242 7.92749ZM29.9836 22.7746C29.7213 24.7755 28.7394 26.6124 27.2213 27.942C25.7033 29.2716 23.753 30.0029 21.735 29.9992C9.75014 29.9992 1.52638e-05 20.2491 1.52638e-05 8.26423C-0.00385074 6.24692 0.726789 4.29719 2.05546 2.77924C3.38412 1.26128 5.21995 0.278922 7.22 0.0156529C7.68042 -0.0402984 8.14655 0.0546364 8.54841 0.2862C8.95026 0.517763 9.26614 0.873454 9.4486 1.29985L12.6782 8.50913C12.8208 8.8355 12.8798 9.19227 12.8499 9.54717C12.82 9.90208 12.7021 10.2439 12.5068 10.5418C12.4871 10.5721 12.4656 10.6013 12.4425 10.6291L9.21748 14.4648C9.1979 14.5046 9.18771 14.5483 9.18771 14.5926C9.18771 14.6369 9.1979 14.6807 9.21748 14.7204C10.3899 17.1205 12.9063 19.6185 15.34 20.7894C15.3806 20.8079 15.425 20.8167 15.4697 20.8151C15.5143 20.8135 15.5579 20.8016 15.5972 20.7802L19.3763 17.5659C19.4033 17.5424 19.4319 17.5209 19.462 17.5016C19.7586 17.3039 20.0997 17.1832 20.4547 17.1506C20.8096 17.118 21.1671 17.1745 21.4947 17.3149L28.7254 20.5552C29.1461 20.7417 29.4956 21.0586 29.7222 21.4592C29.9488 21.8597 30.0404 22.3225 29.9836 22.7792V22.7746ZM28.1636 22.5481C28.1688 22.4841 28.1537 22.4201 28.1204 22.3651C28.0872 22.3102 28.0375 22.2671 27.9784 22.242L20.7462 19.0016C20.7067 18.9864 20.6643 18.9798 20.6221 18.9825C20.5798 18.9851 20.5386 18.9969 20.5013 19.0169L16.7237 22.2312C16.6961 22.2542 16.6671 22.2756 16.638 22.2955C16.3298 22.501 15.9737 22.6231 15.6043 22.6499C15.2349 22.6768 14.8649 22.6074 14.5303 22.4486C11.7201 21.0909 8.91901 18.3159 7.56134 15.5317C7.40165 15.199 7.33057 14.8308 7.35497 14.4626C7.37937 14.0944 7.49843 13.7388 7.70062 13.4301C7.72033 13.3994 7.74233 13.3702 7.76644 13.3429L10.99 9.5071C11.0084 9.46701 11.0179 9.42341 11.0179 9.37929C11.0179 9.33517 11.0084 9.29157 10.99 9.25148L7.76644 2.03609C7.74517 1.97818 7.70689 1.92805 7.65664 1.89227C7.60638 1.85649 7.54649 1.83673 7.4848 1.83557H7.4496C5.89286 2.04266 4.46471 2.80927 3.43184 3.99228C2.39896 5.17528 1.83198 6.69378 1.83677 8.26423C1.83677 19.2358 10.7634 28.1624 21.735 28.1624C23.3057 28.1672 24.8244 27.6 26.0074 26.5668C27.1904 25.5336 27.9569 24.1051 28.1636 22.5481Z"/>
</mask>
<path d="M18.3982 1.90445C18.4293 1.78783 18.4831 1.67848 18.5565 1.58266C18.6298 1.48684 18.7214 1.40642 18.8259 1.346C18.9304 1.28558 19.0457 1.24636 19.1654 1.23056C19.285 1.21476 19.4066 1.2227 19.5232 1.25393C21.7414 1.83254 23.7652 2.99206 25.3862 4.61303C27.0072 6.234 28.1667 8.25781 28.7453 10.476C28.7765 10.5926 28.7845 10.7142 28.7687 10.8338C28.7529 10.9535 28.7136 11.0689 28.6532 11.1733C28.5928 11.2778 28.5124 11.3694 28.4166 11.4428C28.3207 11.5161 28.2114 11.5699 28.0948 11.601C28.0174 11.6216 27.9376 11.6319 27.8575 11.6316C27.6552 11.6317 27.4585 11.565 27.2979 11.4419C27.1374 11.3187 27.022 11.146 26.9697 10.9505C26.473 9.04514 25.4771 7.30672 24.0848 5.9144C22.6925 4.52208 20.9541 3.52622 19.0487 3.02947C18.9321 2.99837 18.8228 2.9446 18.7269 2.87122C18.6311 2.79783 18.5507 2.70628 18.4903 2.6018C18.4299 2.49731 18.3906 2.38195 18.3748 2.26229C18.359 2.14263 18.367 2.02104 18.3982 1.90445ZM17.8242 7.92749C20.0513 8.52137 21.4778 9.94792 22.0717 12.175C22.124 12.3705 22.2394 12.5432 22.3999 12.6664C22.5604 12.7895 22.7571 12.8562 22.9595 12.8561C23.0396 12.8564 23.1194 12.8461 23.1967 12.8255C23.3134 12.7944 23.4227 12.7406 23.5185 12.6673C23.6144 12.5939 23.6948 12.5023 23.7552 12.3978C23.8156 12.2934 23.8548 12.178 23.8706 12.0583C23.8864 11.9387 23.8785 11.8171 23.8473 11.7005C23.0819 8.83668 21.1625 6.91727 18.2987 6.15195C18.1821 6.1208 18.0606 6.11291 17.9409 6.12874C17.8213 6.14457 17.7059 6.18381 17.6015 6.24422C17.3905 6.36621 17.2366 6.56702 17.1737 6.80247C17.1108 7.03792 17.144 7.28873 17.266 7.49971C17.388 7.71069 17.5888 7.86457 17.8242 7.92749ZM29.9836 22.7746C29.7213 24.7755 28.7394 26.6124 27.2213 27.942C25.7033 29.2716 23.753 30.0029 21.735 29.9992C9.75014 29.9992 1.52638e-05 20.2491 1.52638e-05 8.26423C-0.00385074 6.24692 0.726789 4.29719 2.05546 2.77924C3.38412 1.26128 5.21995 0.278922 7.22 0.0156529C7.68042 -0.0402984 8.14655 0.0546364 8.54841 0.2862C8.95026 0.517763 9.26614 0.873454 9.4486 1.29985L12.6782 8.50913C12.8208 8.8355 12.8798 9.19227 12.8499 9.54717C12.82 9.90208 12.7021 10.2439 12.5068 10.5418C12.4871 10.5721 12.4656 10.6013 12.4425 10.6291L9.21748 14.4648C9.1979 14.5046 9.18771 14.5483 9.18771 14.5926C9.18771 14.6369 9.1979 14.6807 9.21748 14.7204C10.3899 17.1205 12.9063 19.6185 15.34 20.7894C15.3806 20.8079 15.425 20.8167 15.4697 20.8151C15.5143 20.8135 15.5579 20.8016 15.5972 20.7802L19.3763 17.5659C19.4033 17.5424 19.4319 17.5209 19.462 17.5016C19.7586 17.3039 20.0997 17.1832 20.4547 17.1506C20.8096 17.118 21.1671 17.1745 21.4947 17.3149L28.7254 20.5552C29.1461 20.7417 29.4956 21.0586 29.7222 21.4592C29.9488 21.8597 30.0404 22.3225 29.9836 22.7792V22.7746ZM28.1636 22.5481C28.1688 22.4841 28.1537 22.4201 28.1204 22.3651C28.0872 22.3102 28.0375 22.2671 27.9784 22.242L20.7462 19.0016C20.7067 18.9864 20.6643 18.9798 20.6221 18.9825C20.5798 18.9851 20.5386 18.9969 20.5013 19.0169L16.7237 22.2312C16.6961 22.2542 16.6671 22.2756 16.638 22.2955C16.3298 22.501 15.9737 22.6231 15.6043 22.6499C15.2349 22.6768 14.8649 22.6074 14.5303 22.4486C11.7201 21.0909 8.91901 18.3159 7.56134 15.5317C7.40165 15.199 7.33057 14.8308 7.35497 14.4626C7.37937 14.0944 7.49843 13.7388 7.70062 13.4301C7.72033 13.3994 7.74233 13.3702 7.76644 13.3429L10.99 9.5071C11.0084 9.46701 11.0179 9.42341 11.0179 9.37929C11.0179 9.33517 11.0084 9.29157 10.99 9.25148L7.76644 2.03609C7.74517 1.97818 7.70689 1.92805 7.65664 1.89227C7.60638 1.85649 7.54649 1.83673 7.4848 1.83557H7.4496C5.89286 2.04266 4.46471 2.80927 3.43184 3.99228C2.39896 5.17528 1.83198 6.69378 1.83677 8.26423C1.83677 19.2358 10.7634 28.1624 21.735 28.1624C23.3057 28.1672 24.8244 27.6 26.0074 26.5668C27.1904 25.5336 27.9569 24.1051 28.1636 22.5481Z" fill="#555555"/>
<path d="M18.3982 1.90445L20.3301 2.42196L20.3307 2.41967L18.3982 1.90445ZM19.5232 1.25393L19.0057 3.18586L19.0184 3.18918L19.5232 1.25393ZM28.7453 10.476L26.81 10.9808L26.8134 10.9935L28.7453 10.476ZM28.0948 11.601L28.6094 13.5337L28.61 13.5335L28.0948 11.601ZM27.8575 11.6316L27.8647 9.63161L27.8563 9.63162L27.8575 11.6316ZM26.9697 10.9505L25.0344 11.4551L25.0376 11.4672L26.9697 10.9505ZM19.0487 3.02947L18.5335 4.96199L18.5442 4.96477L19.0487 3.02947ZM17.8242 7.92749L17.3079 9.85968L17.3089 9.85996L17.8242 7.92749ZM22.0717 12.175L20.1393 12.6903L20.1396 12.6917L22.0717 12.175ZM22.9595 12.8561L22.9667 10.8561L22.9583 10.8561L22.9595 12.8561ZM23.1967 12.8255L23.7114 14.7582L23.712 14.758L23.1967 12.8255ZM23.8473 11.7005L21.9151 12.2168L21.9154 12.218L23.8473 11.7005ZM18.2987 6.15195L17.7824 8.08415L17.7824 8.08415L18.2987 6.15195ZM17.6015 6.24422L16.6003 4.51283L17.6015 6.24422ZM29.9836 22.7746H31.9836L28.0005 22.5147L29.9836 22.7746ZM21.735 29.9992L21.7387 27.9992H21.735V29.9992ZM1.52638e-05 8.26423H2.00002L2.00001 8.26039L1.52638e-05 8.26423ZM7.22 0.0156529L6.97873 -1.96974L6.96886 -1.96854L6.95899 -1.96724L7.22 0.0156529ZM9.4486 1.29985L7.60988 2.08667L7.6165 2.10215L7.62339 2.11752L9.4486 1.29985ZM12.6782 8.50913L14.5109 7.70837L14.5072 7.6999L14.5035 7.69146L12.6782 8.50913ZM12.5068 10.5418L10.8341 9.44541L10.8295 9.45247L12.5068 10.5418ZM12.4425 10.6291L13.9734 11.9162L13.9798 11.9084L12.4425 10.6291ZM9.21748 14.4648L7.68666 13.1777L7.53047 13.3635L7.42325 13.5812L9.21748 14.4648ZM9.18771 14.5926H7.18771H9.18771ZM9.21748 14.7204L11.0145 13.8425L11.0117 13.8368L9.21748 14.7204ZM15.34 20.7894L14.4729 22.5916L14.4915 22.6006L14.5102 22.6091L15.34 20.7894ZM15.5972 20.7802L16.5546 22.5361L16.7358 22.4373L16.8929 22.3037L15.5972 20.7802ZM19.3763 17.5659L20.6721 19.0893L20.6808 19.0819L20.6895 19.0743L19.3763 17.5659ZM19.462 17.5016L20.5424 19.1847L20.557 19.1753L20.5714 19.1657L19.462 17.5016ZM21.4947 17.3149L22.3126 15.4897L22.2975 15.483L22.2824 15.4765L21.4947 17.3149ZM28.7254 20.5552L27.9075 22.3803L27.915 22.3837L28.7254 20.5552ZM29.9836 22.7792H27.9836L31.9682 23.0265L29.9836 22.7792ZM28.1636 22.5481L30.1462 22.8113L30.1531 22.7598L30.1572 22.708L28.1636 22.5481ZM27.9784 22.242L27.1607 24.0671L27.1777 24.0748L27.1948 24.0821L27.9784 22.242ZM20.7462 19.0016L21.564 17.1764L21.5156 17.1548L21.4662 17.1357L20.7462 19.0016ZM20.5013 19.0169L19.5546 17.2552L19.3672 17.3559L19.2052 17.4937L20.5013 19.0169ZM16.7237 22.2312L18.0041 23.7677L18.012 23.7611L18.0198 23.7544L16.7237 22.2312ZM16.638 22.2955L17.7476 23.9595L17.7575 23.9529L17.7673 23.9461L16.638 22.2955ZM14.5303 22.4486L13.6603 24.2495L13.6728 24.2554L14.5303 22.4486ZM7.56134 15.5317L5.75828 16.3972L5.76368 16.4083L7.56134 15.5317ZM7.70062 13.4301L9.37364 14.526L9.37866 14.5184L9.38361 14.5106L7.70062 13.4301ZM7.76644 13.3429L9.26761 14.6644L9.28278 14.6472L9.29756 14.6296L7.76644 13.3429ZM10.99 9.5071L12.5211 10.7938L12.6947 10.5873L12.8073 10.3421L10.99 9.5071ZM10.99 9.25148L9.1639 10.0673L9.1682 10.0769L9.1726 10.0865L10.99 9.25148ZM7.76644 2.03609L5.88911 2.72574L5.9126 2.78968L5.94039 2.85188L7.76644 2.03609ZM7.4848 1.83557L7.52214 -0.164078L7.50347 -0.164426H7.4848V1.83557ZM7.4496 1.83557V-0.164426H7.31716L7.18588 -0.146963L7.4496 1.83557ZM1.83677 8.26423H3.83678L3.83676 8.25813L1.83677 8.26423ZM21.735 28.1624L21.741 26.1624H21.735V28.1624ZM20.3307 2.41967C20.2941 2.55703 20.2307 2.68581 20.1443 2.79867L16.9686 0.366653C16.7354 0.671151 16.5645 1.01863 16.4657 1.38923L20.3307 2.41967ZM20.1443 2.79867C20.0579 2.91152 19.9501 3.00624 19.827 3.07739L17.8247 -0.385389C17.4927 -0.193403 17.2018 0.0621476 16.9686 0.366653L20.1443 2.79867ZM19.827 3.07739C19.704 3.14854 19.5681 3.19475 19.4272 3.21335L18.9036 -0.752236C18.5234 -0.702035 18.1568 -0.577376 17.8247 -0.385389L19.827 3.07739ZM19.4272 3.21335C19.2862 3.23196 19.143 3.2226 19.0057 3.18582L20.0407 -0.677954C19.6702 -0.777195 19.2838 -0.802436 18.9036 -0.752236L19.4272 3.21335ZM19.0184 3.18918C20.8925 3.67804 22.6024 4.6577 23.972 6.02724L26.8004 3.19881C24.928 1.32641 22.5903 -0.012952 20.028 -0.68131L19.0184 3.18918ZM23.972 6.02724C25.3415 7.39678 26.3212 9.10668 26.81 10.9808L30.6805 9.97118C30.0122 7.40894 28.6728 5.07121 26.8004 3.19881L23.972 6.02724ZM26.8134 10.9935C26.7766 10.8562 26.7673 10.713 26.7859 10.572L30.7514 11.0956C30.8016 10.7154 30.7764 10.329 30.6772 9.95849L26.8134 10.9935ZM26.7859 10.572C26.8045 10.4311 26.8507 10.2953 26.9218 10.1722L30.3846 12.1745C30.5766 11.8425 30.7012 11.4758 30.7514 11.0956L26.7859 10.572ZM26.9218 10.1722C26.993 10.0491 27.0877 9.94132 27.2005 9.85488L29.6326 13.0306C29.9371 12.7974 30.1926 12.5065 30.3846 12.1745L26.9218 10.1722ZM27.2005 9.85488C27.3134 9.76846 27.4422 9.70513 27.5795 9.66851L28.61 13.5335C28.9806 13.4347 29.3281 13.2638 29.6326 13.0306L27.2005 9.85488ZM27.5801 9.66836C27.673 9.64363 27.7687 9.63128 27.8647 9.63163L27.8503 13.6316C28.1065 13.6325 28.3618 13.5996 28.6094 13.5337L27.5801 9.66836ZM27.8563 9.63162C28.0946 9.63147 28.3263 9.71003 28.5154 9.85509L26.0805 13.0286C26.5906 13.42 27.2157 13.632 27.8587 13.6316L27.8563 9.63162ZM28.5154 9.85509C28.7044 10.0002 28.8403 10.2036 28.9019 10.4338L25.0376 11.4672C25.2037 12.0883 25.5703 12.6372 26.0805 13.0286L28.5154 9.85509ZM28.9051 10.4459C28.3186 8.19642 27.1428 6.14399 25.499 4.50018L22.6706 7.32861C23.8114 8.46944 24.6274 9.89386 25.0344 11.455L28.9051 10.4459ZM25.499 4.50018C23.8552 2.85637 21.8028 1.68064 19.5533 1.09416L18.5442 4.96477C20.1054 5.3718 21.5298 6.18778 22.6706 7.32861L25.499 4.50018ZM19.5639 1.09697C19.7013 1.13359 19.8301 1.19692 19.9429 1.28335L17.5109 4.45909C17.8154 4.69228 18.1629 4.86316 18.5335 4.96196L19.5639 1.09697ZM19.9429 1.28335C20.0558 1.36978 20.1505 1.47761 20.2217 1.60065L16.7589 3.60294C16.9509 3.93496 17.2064 4.22589 17.5109 4.45909L19.9429 1.28335ZM20.2217 1.60065C20.2928 1.72371 20.339 1.85959 20.3576 2.00051L16.392 2.52407C16.4422 2.9043 16.5669 3.27091 16.7589 3.60294L20.2217 1.60065ZM20.3576 2.00051C20.3762 2.14142 20.3669 2.28463 20.3301 2.42195L16.4663 1.38695C16.3671 1.75744 16.3418 2.14384 16.392 2.52407L20.3576 2.00051ZM17.3089 9.85996C18.8439 10.2693 19.7299 11.1553 20.1393 12.6903L24.0042 11.6597C23.2258 8.74054 21.2587 6.77345 18.3395 5.99502L17.3089 9.85996ZM20.1396 12.6917C20.3057 13.3128 20.6723 13.8617 21.1825 14.2531L23.6173 11.0796C23.8064 11.2247 23.9423 11.4281 24.0038 11.6583L20.1396 12.6917ZM21.1825 14.2531C21.6926 14.6445 22.3177 14.8565 22.9607 14.8561L22.9583 10.8561C23.1966 10.856 23.4283 10.9345 23.6173 11.0796L21.1825 14.2531ZM22.9523 14.8561C23.2085 14.857 23.4638 14.8241 23.7114 14.7582L22.6821 10.8929C22.7749 10.8681 22.8706 10.8558 22.9667 10.8561L22.9523 14.8561ZM23.712 14.758C24.0826 14.6592 24.43 14.4883 24.7345 14.2551L22.3025 11.0794C22.4154 10.993 22.5442 10.9296 22.6815 10.893L23.712 14.758ZM24.7345 14.2551C25.0391 14.0219 25.2946 13.731 25.4866 13.399L22.0238 11.3967C22.0949 11.2737 22.1897 11.1658 22.3025 11.0794L24.7345 14.2551ZM25.4866 13.399C25.6786 13.067 25.8032 12.7003 25.8534 12.3201L21.8878 11.7966C21.9064 11.6556 21.9526 11.5198 22.0238 11.3967L25.4866 13.399ZM25.8534 12.3201C25.9036 11.9399 25.8784 11.5535 25.7791 11.183L21.9154 12.218C21.8786 12.0807 21.8692 11.9375 21.8878 11.7966L25.8534 12.3201ZM25.7795 11.1841C24.8294 7.6291 22.3701 5.1698 18.8151 4.21976L17.7824 8.08415C19.955 8.66475 21.3345 10.0443 21.9151 12.2168L25.7795 11.1841ZM18.8151 4.21976C18.4447 4.12079 18.0586 4.09574 17.6786 4.14602L18.2033 8.11146C18.0625 8.13008 17.9195 8.1208 17.7824 8.08415L18.8151 4.21976ZM17.6786 4.14602C17.2986 4.19631 16.9322 4.32095 16.6003 4.51283L18.6026 7.97561C18.4797 8.04667 18.344 8.09283 18.2033 8.11146L17.6786 4.14602ZM16.6003 4.51283C15.9302 4.90034 15.4414 5.53821 15.2415 6.28611L19.1059 7.31883C19.0319 7.59584 18.8508 7.83208 18.6026 7.97561L16.6003 4.51283ZM15.2415 6.28611C15.0416 7.03401 15.1471 7.83068 15.5346 8.50085L18.9974 6.49856C19.1409 6.74677 19.1799 7.04183 19.1059 7.31883L15.2415 6.28611ZM15.5346 8.50085C15.9221 9.17102 16.56 9.65981 17.3079 9.85968L18.3406 5.9953C18.6176 6.06932 18.8538 6.25036 18.9974 6.49856L15.5346 8.50085ZM28.0005 22.5147C27.8014 24.0337 27.056 25.4282 25.9036 26.4375L28.5391 29.4465C30.4228 27.7967 31.6412 25.5173 31.9666 23.0345L28.0005 22.5147ZM25.9036 26.4375C24.7512 27.4469 23.2706 28.002 21.7387 27.9992L21.7313 31.9992C24.2353 32.0038 26.6554 31.0964 28.5391 29.4465L25.9036 26.4375ZM21.735 27.9992C10.8547 27.9992 2.00002 19.1445 2.00002 8.26423H-1.99998C-1.99998 21.3536 8.64557 31.9992 21.735 31.9992V27.9992ZM2.00001 8.26039C1.99708 6.72897 2.55174 5.24885 3.56039 4.0965L0.550528 1.46197C-1.09816 3.34554 -2.00478 5.76487 -1.99998 8.26806L2.00001 8.26039ZM3.56039 4.0965C4.56903 2.94416 5.96268 2.19841 7.48101 1.99855L6.95899 -1.96724C4.47721 -1.64056 2.19922 -0.421594 0.550528 1.46197L3.56039 4.0965ZM7.46128 2.00105C7.49198 1.99732 7.52306 2.00365 7.54986 2.01909L9.54696 -1.44669C8.77004 -1.89437 7.86885 -2.07791 6.97873 -1.96974L7.46128 2.00105ZM7.54986 2.01909C7.57665 2.03453 7.59771 2.05824 7.60988 2.08667L11.2873 0.513031C10.9346 -0.311336 10.3239 -0.999001 9.54696 -1.44669L7.54986 2.01909ZM7.62339 2.11752L10.853 9.32679L14.5035 7.69146L11.2738 0.482186L7.62339 2.11752ZM10.8455 9.30988C10.855 9.33164 10.859 9.35543 10.857 9.3791L14.8428 9.71525C14.9007 9.02911 14.7866 8.33936 14.5109 7.70837L10.8455 9.30988ZM10.857 9.3791C10.855 9.40276 10.8471 9.42555 10.8341 9.44542L14.1795 11.6382C14.557 11.0623 14.785 10.4014 14.8428 9.71525L10.857 9.3791ZM10.8295 9.45247C10.8527 9.41677 10.878 9.38246 10.9052 9.34972L13.9798 11.9084C14.0533 11.8201 14.1215 11.7275 14.1841 11.6311L10.8295 9.45247ZM10.9117 9.34197L7.68666 13.1777L10.7483 15.7519L13.9733 11.9161L10.9117 9.34197ZM7.42325 13.5812C7.26831 13.8958 7.18771 14.2419 7.18771 14.5926H11.1877C11.1877 14.8547 11.1275 15.1133 11.0117 15.3484L7.42325 13.5812ZM7.18771 14.5926C7.18771 14.9434 7.26831 15.2894 7.42325 15.604L11.0117 13.8368C11.1275 14.0719 11.1877 14.3305 11.1877 14.5926H7.18771ZM7.42045 15.5983C8.79168 18.4052 11.6372 21.2273 14.4729 22.5916L16.2071 18.9871C14.1754 18.0096 11.9882 15.8357 11.0145 13.8425L7.42045 15.5983ZM14.5102 22.6091C14.8333 22.7565 15.1863 22.8265 15.541 22.8139L15.3983 18.8164C15.6638 18.8069 15.9279 18.8594 16.1698 18.9696L14.5102 22.6091ZM15.541 22.8139C15.8958 22.8012 16.2428 22.7061 16.5546 22.5361L14.6397 19.0243C14.873 18.897 15.1328 18.8259 15.3983 18.8164L15.541 22.8139ZM16.8929 22.3037L20.6721 19.0893L18.0805 16.0424L14.3014 19.2567L16.8929 22.3037ZM20.6895 19.0743C20.6432 19.1146 20.594 19.1515 20.5424 19.1847L18.3816 15.8185C18.2698 15.8903 18.1633 15.9702 18.063 16.0574L20.6895 19.0743ZM20.5714 19.1657C20.5912 19.1525 20.614 19.1444 20.6376 19.1423L20.2717 15.159C19.5855 15.2221 18.9259 15.4553 18.3525 15.8375L20.5714 19.1657ZM20.6376 19.1423C20.6613 19.1401 20.6851 19.1438 20.707 19.1532L22.2824 15.4765C21.649 15.2051 20.9579 15.096 20.2717 15.159L20.6376 19.1423ZM20.6768 19.14L27.9075 22.3803L29.5433 18.7301L22.3126 15.4897L20.6768 19.14ZM27.915 22.3837C27.9431 22.3961 27.9664 22.4172 27.9815 22.4439L31.463 20.4744C31.0249 19.7 30.3491 19.0872 29.5358 18.7267L27.915 22.3837ZM27.9815 22.4439C27.9966 22.4706 28.0027 22.5015 27.9989 22.532L31.9682 23.0265C32.0782 22.1436 31.9011 21.2487 31.463 20.4744L27.9815 22.4439ZM31.9836 22.7792V22.7746H27.9836V22.7792H31.9836ZM30.1572 22.708C30.1959 22.2258 30.082 21.7437 29.8316 21.3299L26.4092 23.4004C26.2253 23.0964 26.1416 22.7423 26.17 22.3882L30.1572 22.708ZM29.8316 21.3299C29.5812 20.916 29.207 20.5914 28.762 20.4019L27.1948 24.0821C26.868 23.9429 26.5931 23.7044 26.4092 23.4004L29.8316 21.3299ZM28.7962 20.4168L21.564 17.1764L19.9284 20.8268L27.1607 24.0671L28.7962 20.4168ZM21.4662 17.1357C21.1577 17.0167 20.8272 16.9658 20.4973 16.9864L20.7468 20.9786C20.5015 20.9939 20.2557 20.9561 20.0262 20.8675L21.4662 17.1357ZM20.4973 16.9864C20.1674 17.007 19.8458 17.0987 19.5546 17.2552L21.448 20.7787C21.2314 20.8951 20.9922 20.9632 20.7468 20.9786L20.4973 16.9864ZM19.2052 17.4937L15.4276 20.708L18.0198 23.7544L21.7974 20.5401L19.2052 17.4937ZM15.4433 20.6948C15.4759 20.6677 15.4997 20.651 15.5086 20.6449L17.7673 23.9461C17.8344 23.9003 17.9164 23.8407 18.0041 23.7677L15.4433 20.6948ZM15.5284 20.6316C15.5078 20.6453 15.4841 20.6534 15.4595 20.6552L15.7492 24.6447C16.4633 24.5928 17.1518 24.3568 17.7476 23.9595L15.5284 20.6316ZM15.4595 20.6552C15.4348 20.657 15.4102 20.6524 15.3878 20.6418L13.6728 24.2554C14.3196 24.5624 15.035 24.6965 15.7492 24.6447L15.4595 20.6552ZM15.4003 20.6477C12.9887 19.4826 10.5172 17.0303 9.359 14.6551L5.76368 16.4083C7.32077 19.6015 10.4514 22.6992 13.6603 24.2494L15.4003 20.6477ZM9.36435 14.6661C9.35371 14.644 9.34897 14.6194 9.35059 14.5949L5.35935 14.3303C5.31217 15.0421 5.4496 15.7541 5.75832 16.3972L9.36435 14.6661ZM9.35059 14.5949C9.35222 14.5703 9.36016 14.5466 9.37364 14.526L6.02761 12.3342C5.63671 12.9309 5.40653 13.6185 5.35935 14.3303L9.35059 14.5949ZM9.38361 14.5106C9.34887 14.5647 9.31009 14.6162 9.26761 14.6644L6.26527 12.0213C6.17457 12.1243 6.09179 12.2341 6.01764 12.3496L9.38361 14.5106ZM9.29756 14.6296L12.5211 10.7938L9.45883 8.22037L6.23532 12.0561L9.29756 14.6296ZM12.8073 10.3421C12.9461 10.0401 13.0179 9.71163 13.0179 9.37929H9.01791C9.01791 9.1352 9.07066 8.89395 9.1726 8.6721L12.8073 10.3421ZM13.0179 9.37929C13.0179 9.04696 12.9461 8.71853 12.8073 8.41648L9.1726 10.0865C9.07066 9.86462 9.01791 9.62338 9.01791 9.37929H13.0179ZM12.816 8.43569L9.59249 1.22029L5.94039 2.85188L9.1639 10.0673L12.816 8.43569ZM9.64377 1.34644C9.48352 0.910202 9.1952 0.532556 8.8166 0.263007L6.49668 3.52153C6.21859 3.32354 6.00681 3.04615 5.88911 2.72574L9.64377 1.34644ZM8.8166 0.263007C8.43801 -0.00653495 7.9868 -0.155402 7.52214 -0.164078L7.44747 3.83523C7.10617 3.82885 6.77476 3.71951 6.49668 3.52153L8.8166 0.263007ZM7.4848 -0.164426H7.4496V3.83557H7.4848V-0.164426ZM7.18588 -0.146963C5.14758 0.124177 3.27764 1.12794 1.92526 2.67689L4.93841 5.30766C5.65178 4.49061 6.63814 3.96113 7.71332 3.81811L7.18588 -0.146963ZM1.92526 2.67689C0.572879 4.22584 -0.169489 6.21408 -0.163217 8.27033L3.83676 8.25813C3.83346 7.17348 4.22505 6.12471 4.93841 5.30766L1.92526 2.67689ZM-0.163227 8.26423C-0.163227 20.3404 9.65885 30.1624 21.735 30.1624V26.1624C11.868 26.1624 3.83677 18.1312 3.83677 8.26423H-0.163227ZM21.7289 30.1624C23.7855 30.1686 25.774 29.426 27.323 28.0732L24.6918 25.0604C23.8747 25.774 22.8258 26.1657 21.741 26.1624L21.7289 30.1624ZM27.323 28.0732C28.872 26.7204 29.8755 24.85 30.1462 22.8113L26.181 22.2848C26.0383 23.3602 25.5089 24.3468 24.6918 25.0604L27.323 28.0732Z" fill="#555555" mask="url(#path-1-inside-1_30_194)"/>
</svg>
