<svg width="65" height="70" viewBox="0 0 65 70" fill="none" xmlns="http://www.w3.org/2000/svg">
<path fill-rule="evenodd" clip-rule="evenodd" d="M41.112 1.37244C36.1292 3.50723 28.9378 3.50722 23.955 1.37243C19.9065 -0.362067 15.3781 -0.522914 11.1997 1.2946C2.38198 5.13011 -1.57294 16.3387 2.26489 26.4498C2.26574 26.4521 2.26571 26.4546 2.26478 26.4568L3.46243 29.061C7.5109 37.8641 10.5625 47.0923 12.5603 56.5735L14.4608 65.5927C15.1185 68.1855 17.4426 70 20.1059 70C22.9662 70 25.4034 67.9137 25.8575 65.0765L28.5368 48.3363C28.8523 46.3647 30.5459 44.9149 32.5336 44.9149C34.5213 44.9149 36.2149 46.3647 36.5304 48.3363L39.2096 65.0765C39.6637 67.9137 42.1009 70 44.9612 70C47.6245 70 49.9486 68.1855 50.6063 65.5927L52.5068 56.5735C54.5046 47.0923 57.5562 37.8641 61.6047 29.061L62.8024 26.4568C62.8014 26.4546 62.8014 26.4521 62.8022 26.4498C66.6401 16.3387 62.6851 5.13011 53.8674 1.2946C49.689 -0.522933 45.1605 -0.362076 41.112 1.37244Z" fill="url(#paint0_linear_151_27)"/>
<defs>
<linearGradient id="paint0_linear_151_27" x1="9.20023" y1="-8.38827e-08" x2="47.4669" y2="67.2" gradientUnits="userSpaceOnUse">
<stop stop-color="#F0F6F9"/>
<stop offset="1" stop-color="#CDDFF2"/>
</linearGradient>
</defs>
</svg>
