<svg width="64" height="70" viewBox="0 0 64 70" fill="none" xmlns="http://www.w3.org/2000/svg">
<g clip-path="url(#clip0_12_482)">
<path d="M15.2444 23.3333H50.2444L48.926 35.1989C48.5445 38.6321 50.199 41.9727 53.1611 43.7499H12.3278C15.2898 41.9727 16.9443 38.6321 16.5628 35.1989L15.2444 23.3333Z" fill="url(#paint0_linear_12_482)"/>
<path d="M15.2444 23.3333H50.2444L48.926 35.1989C48.5445 38.6321 50.199 41.9727 53.1611 43.7499H12.3278C15.2898 41.9727 16.9443 38.6321 16.5628 35.1989L15.2444 23.3333Z" fill="url(#paint1_linear_12_482)" fill-opacity="0.4"/>
<path d="M15.2444 23.3333H50.2444L48.926 35.1989C48.5445 38.6321 50.199 41.9727 53.1611 43.7499H12.3278C15.2898 41.9727 16.9443 38.6321 16.5628 35.1989L15.2444 23.3333Z" fill="url(#paint2_linear_12_482)" fill-opacity="0.05"/>
<path d="M15.2444 23.3333H50.2444L48.926 35.1989C48.5445 38.6321 50.199 41.9727 53.1611 43.7499H12.3278C15.2898 41.9727 16.9443 38.6321 16.5628 35.1989L15.2444 23.3333Z" fill="url(#paint3_linear_12_482)" fill-opacity="0.2"/>
<path d="M15.2444 23.3333H50.2444L48.926 35.1989C48.5445 38.6321 50.199 41.9727 53.1611 43.7499H12.3278C15.2898 41.9727 16.9443 38.6321 16.5628 35.1989L15.2444 23.3333Z" fill="url(#paint4_linear_12_482)" fill-opacity="0.3"/>
<path d="M54.9001 47.2476C55.3663 45.8052 54.6869 44.2334 53.301 43.6195L39.8323 37.6533C35.3187 35.654 30.1707 35.654 25.6571 37.6533L12.1883 43.6193C10.8024 44.2332 10.123 45.8051 10.5892 47.2475C11.9895 51.58 12.652 54.5601 13.7433 59.6871L15.0263 65.715C15.6706 68.2337 17.9459 69.9969 20.5541 69.9999C20.5563 69.9999 20.5585 69.9999 20.5607 69.9999C20.5629 69.9999 20.5651 69.9999 20.5673 69.9999C23.3687 69.9967 25.7547 67.9694 26.1995 65.2132L28.8263 49.0971C29.1356 47.1803 30.796 45.6944 32.7447 45.6944C34.6934 45.6944 36.3538 47.1803 36.6632 49.0971L39.2898 65.2132C39.7347 67.9694 42.1207 69.9967 44.9221 69.9999C44.9243 69.9999 44.9265 69.9999 44.9287 69.9999C44.9309 69.9999 44.933 69.9999 44.9352 69.9999C47.5435 69.9969 49.8188 68.2337 50.463 65.715L51.7461 59.6871C52.8373 54.5602 53.4999 51.5801 54.9001 47.2476Z" fill="url(#paint5_linear_12_482)"/>
<path d="M54.9001 47.2476C55.3663 45.8052 54.6869 44.2334 53.301 43.6195L39.8323 37.6533C35.3187 35.654 30.1707 35.654 25.6571 37.6533L12.1883 43.6193C10.8024 44.2332 10.123 45.8051 10.5892 47.2475C11.9895 51.58 12.652 54.5601 13.7433 59.6871L15.0263 65.715C15.6706 68.2337 17.9459 69.9969 20.5541 69.9999C20.5563 69.9999 20.5585 69.9999 20.5607 69.9999C20.5629 69.9999 20.5651 69.9999 20.5673 69.9999C23.3687 69.9967 25.7547 67.9694 26.1995 65.2132L28.8263 49.0971C29.1356 47.1803 30.796 45.6944 32.7447 45.6944C34.6934 45.6944 36.3538 47.1803 36.6632 49.0971L39.2898 65.2132C39.7347 67.9694 42.1207 69.9967 44.9221 69.9999C44.9243 69.9999 44.9265 69.9999 44.9287 69.9999C44.9309 69.9999 44.933 69.9999 44.9352 69.9999C47.5435 69.9969 49.8188 68.2337 50.463 65.715L51.7461 59.6871C52.8373 54.5602 53.4999 51.5801 54.9001 47.2476Z" fill="url(#paint6_radial_12_482)" fill-opacity="0.2"/>
<path d="M24.3343 7.16756C29.2194 9.24305 36.2698 9.24306 41.1549 7.16757C43.2057 6.29624 45.3822 5.83338 47.5721 5.83325H47.5738C49.6216 5.83337 51.6809 6.23812 53.6602 7.09189C62.3067 10.8216 66.1839 21.7224 62.4176 31.5541L62.4199 31.5551C61.9931 32.4766 61.5533 33.4022 61.1238 34.3317C60.4578 35.7728 58.7846 36.48 57.3069 35.8995L39.8543 29.0431C35.2844 27.2478 30.2045 27.2478 25.6345 29.0431L8.18194 35.8995C6.7043 36.48 5.0311 35.7728 4.36529 34.3316C3.93589 33.4022 3.49627 32.4766 3.0694 31.5551L3.07173 31.5541C-0.694574 21.7224 3.18262 10.8216 11.8291 7.09189C15.9256 5.32486 20.3652 5.48124 24.3343 7.16756Z" fill="url(#paint7_linear_12_482)"/>
<g filter="url(#filter0_f_12_482)">
<path d="M10.911 6.16261L10.6406 4.87257C10.5205 4.29941 10.0151 3.88892 9.42947 3.88892C8.82742 3.88892 8.31274 4.32219 8.21009 4.91542L8.03571 5.92325C7.54175 8.77804 5.34018 11.0335 2.49817 11.5964L0.623377 11.9677C0.0802422 12.0753 -0.311121 12.5518 -0.311121 13.1054C-0.311121 13.6765 0.104532 14.1626 0.66865 14.2512L2.22187 14.4953C5.20307 14.9638 7.54843 17.2902 8.04119 20.2675L8.21773 21.3341C8.31579 21.9266 8.82815 22.3611 9.4287 22.3611C10.0136 22.3611 10.5172 21.9484 10.6322 21.375L10.9042 20.0181C11.4755 17.1681 13.7546 14.9713 16.6238 14.505L18.1537 14.2564C18.7185 14.1647 19.1333 13.6769 19.1333 13.1048C19.1333 12.5507 18.7435 12.073 18.2007 11.9618L16.3578 11.5844C13.6237 11.0245 11.4835 8.89405 10.911 6.16261Z" fill="url(#paint8_linear_12_482)"/>
</g>
<path d="M10.4198 8.00021L9.95754 4.36349C9.92305 4.09223 9.69226 3.88892 9.41882 3.88892C9.13883 3.88892 8.90473 4.10179 8.87821 4.38053L8.53456 7.99201C8.33234 10.1172 6.67457 11.8132 4.55455 12.0638L0.16293 12.5829C-0.107431 12.6148 -0.311121 12.844 -0.311121 13.1163C-0.311121 13.3959 -0.0965881 13.6287 0.182095 13.6516L4.32427 13.9911C6.55807 14.1743 8.33702 15.9365 8.54128 18.1684L8.88001 21.8696C8.90549 22.148 9.13896 22.3611 9.41853 22.3611C9.69181 22.3611 9.92214 22.1572 9.9553 21.886L10.4105 18.1627C10.6851 15.9169 12.497 14.1715 14.7515 13.9811L18.6399 13.6528C18.9189 13.6292 19.1333 13.3959 19.1333 13.116C19.1333 12.8437 18.9301 12.6142 18.6597 12.5813L14.5183 12.077C12.3799 11.8167 10.6915 10.1372 10.4198 8.00021Z" fill="url(#paint9_linear_12_482)"/>
</g>
<defs>
<filter id="filter0_f_12_482" x="-4.31113" y="-0.111084" width="27.4444" height="26.4722" filterUnits="userSpaceOnUse" color-interpolation-filters="sRGB">
<feFlood flood-opacity="0" result="BackgroundImageFix"/>
<feBlend mode="normal" in="SourceGraphic" in2="BackgroundImageFix" result="shape"/>
<feGaussianBlur stdDeviation="2" result="effect1_foregroundBlur_12_482"/>
</filter>
<linearGradient id="paint0_linear_12_482" x1="32.7444" y1="27.7082" x2="32.7444" y2="42.7777" gradientUnits="userSpaceOnUse">
<stop stop-color="#AAC8E3"/>
<stop offset="1" stop-color="#C8DBED"/>
</linearGradient>
<linearGradient id="paint1_linear_12_482" x1="14.7583" y1="33.8438" x2="20.1055" y2="33.8438" gradientUnits="userSpaceOnUse">
<stop stop-color="#F1F7FA"/>
<stop offset="1" stop-color="#F0F7FA" stop-opacity="0"/>
</linearGradient>
<linearGradient id="paint2_linear_12_482" x1="32.7444" y1="27.7082" x2="32.7444" y2="32.0832" gradientUnits="userSpaceOnUse">
<stop stop-color="#065099"/>
<stop offset="1" stop-color="#065099" stop-opacity="0"/>
</linearGradient>
<linearGradient id="paint3_linear_12_482" x1="32.7444" y1="23.3333" x2="32.7444" y2="34.0277" gradientUnits="userSpaceOnUse">
<stop stop-color="#23578B"/>
<stop offset="1" stop-color="#23578B" stop-opacity="0"/>
</linearGradient>
<linearGradient id="paint4_linear_12_482" x1="32.7444" y1="26.736" x2="32.7444" y2="37.9166" gradientUnits="userSpaceOnUse">
<stop stop-color="#E8C200"/>
<stop offset="1" stop-color="#FFE457" stop-opacity="0"/>
</linearGradient>
<linearGradient id="paint5_linear_12_482" x1="14.7583" y1="26.2499" x2="32.7446" y2="69.9999" gradientUnits="userSpaceOnUse">
<stop stop-color="#E8F2F8"/>
<stop offset="1" stop-color="#CDDFF2"/>
</linearGradient>
<radialGradient id="paint6_radial_12_482" cx="0" cy="0" r="1" gradientUnits="userSpaceOnUse" gradientTransform="translate(27.3972 34.0277) rotate(71.0296) scale(16.4489 20.5425)">
<stop stop-color="white"/>
<stop offset="1" stop-color="#EDF5F8" stop-opacity="0"/>
</radialGradient>
<linearGradient id="paint7_linear_12_482" x1="12.3278" y1="10.6944" x2="70.8701" y2="46.6823" gradientUnits="userSpaceOnUse">
<stop stop-color="#F9EE93"/>
<stop offset="1" stop-color="#E4BB29"/>
</linearGradient>
<linearGradient id="paint8_linear_12_482" x1="9.4111" y1="3.88892" x2="9.4111" y2="22.3611" gradientUnits="userSpaceOnUse">
<stop stop-color="white"/>
<stop offset="1" stop-color="white"/>
</linearGradient>
<linearGradient id="paint9_linear_12_482" x1="9.4111" y1="3.88892" x2="9.4111" y2="22.3611" gradientUnits="userSpaceOnUse">
<stop stop-color="white"/>
<stop offset="1" stop-color="white"/>
</linearGradient>
<clipPath id="clip0_12_482">
<rect width="63.7" height="70" fill="white"/>
</clipPath>
</defs>
</svg>
