<svg width="30" height="30" viewBox="0 0 30 30" fill="none" xmlns="http://www.w3.org/2000/svg">
<path d="M15.0039 0.5C17.2172 0.500767 19.4008 1.0083 21.3877 1.9834C23.3746 2.95853 25.1122 4.37567 26.4668 6.12598C27.8213 7.87622 28.7575 9.91322 29.2031 12.0811C29.6488 14.2489 29.5924 16.4902 29.0381 18.6328C28.4837 20.7756 27.446 22.7635 26.0049 24.4434C24.5638 26.1231 22.7571 27.4505 20.7236 28.3242C18.6902 29.1979 16.4838 29.5951 14.2734 29.4844C12.063 29.3736 9.90665 28.7582 7.9707 27.6855L7.77832 27.5791L7.57031 27.6484L2.2168 29.4336H2.21582C1.98705 29.5098 1.74154 29.5211 1.50684 29.4658C1.27181 29.4104 1.05649 29.2899 0.885742 29.1191C0.715132 28.9485 0.59554 28.7339 0.540039 28.499C0.484605 28.2641 0.495008 28.018 0.571289 27.7891L2.35645 22.4346L2.42578 22.2266L2.31934 22.0342C1.09507 19.8266 0.468312 17.3376 0.500977 14.8135C0.533727 12.2892 1.22558 9.81682 2.50684 7.6416C3.78807 5.46644 5.61481 3.66364 7.80664 2.41113C9.99853 1.15861 12.4794 0.499531 15.0039 0.5ZM22.1455 2.6123C19.4179 1.03945 16.2474 0.410351 13.126 0.823242C10.0047 1.23614 7.10662 2.66763 4.88184 4.89551C2.65706 7.12341 1.22982 10.0236 0.821289 13.1455C0.412795 16.2674 1.04643 19.4368 2.62305 22.1621C2.63009 22.1743 2.63431 22.1881 2.63574 22.2021L2.63086 22.2441L0.761719 27.8516C0.697129 28.0452 0.687564 28.2534 0.734375 28.4521C0.781296 28.651 0.882913 28.8331 1.02734 28.9775C1.17181 29.122 1.35387 29.2236 1.55273 29.2705C1.75151 29.3174 1.95959 29.3078 2.15332 29.2432L7.76367 27.373C7.77247 27.3701 7.78174 27.3683 7.79102 27.3682C7.80907 27.3684 7.82705 27.373 7.84277 27.3818V27.3828C10.0195 28.641 12.4897 29.3025 15.0039 29.3018C18.1523 29.3012 21.2126 28.262 23.71 26.3447C26.2074 24.4273 28.0026 21.7388 28.8164 18.6973C29.6301 15.6558 29.418 12.4307 28.2119 9.52246C27.0057 6.61409 24.8731 4.18516 22.1455 2.6123ZM11.4033 6.5H11.4043C11.4229 6.49996 11.4412 6.50589 11.457 6.51562C11.4728 6.52536 11.4858 6.53911 11.4941 6.55566L11.4951 6.55664L13.8945 11.3555V11.3564C13.9023 11.3721 13.9063 11.3898 13.9053 11.4072C13.9042 11.4245 13.8982 11.4415 13.8887 11.4561L12.2236 13.9521L12.0654 14.1895L12.1885 14.4463C12.8957 15.9211 14.0858 17.1101 15.5605 17.8174L15.8174 17.9404L16.0537 17.7832L18.5488 16.1172L18.5498 16.1182C18.5644 16.1085 18.5811 16.1027 18.5986 16.1016L18.6494 16.1113L23.4492 18.5117C23.4658 18.52 23.4795 18.533 23.4893 18.5488C23.4989 18.5645 23.5048 18.5822 23.5049 18.6006V18.6016C23.5048 19.9011 22.9883 21.1474 22.0693 22.0664C21.1504 22.9853 19.904 23.5019 18.6045 23.502L18.0049 23.4863C15.0149 23.335 12.1787 22.0801 10.0518 19.9531C7.7831 17.6844 6.50638 14.6088 6.50293 11.4004L6.50879 11.1582C6.56879 9.94687 7.07682 8.7972 7.93848 7.93555C8.8574 7.01666 10.1038 6.50008 11.4033 6.5ZM10.9971 6.71777C9.82529 6.81952 8.73437 7.35672 7.93945 8.22363C7.19418 9.0365 6.75925 10.0837 6.70801 11.1807L6.70312 11.4014C6.70644 14.5565 7.9614 17.5815 10.1924 19.8125C12.4234 22.0435 15.4484 23.2984 18.6035 23.3018C19.7798 23.3024 20.9139 22.8619 21.7812 22.0674C22.6486 21.2728 23.1869 20.1816 23.2891 19.0098L23.3184 18.6709L23.0146 18.5186L18.873 16.4482L18.6133 16.3193L18.3721 16.4795L15.8906 18.1299L15.8896 18.1309C15.876 18.1399 15.86 18.1449 15.8438 18.1465L15.7959 18.1396C14.0232 17.3934 12.6129 15.9834 11.8662 14.2109C11.86 14.1958 11.8577 14.1794 11.8594 14.1631C11.861 14.1467 11.8668 14.1308 11.876 14.1172L11.877 14.1152L13.5273 11.6338L13.6875 11.3926L13.5576 11.1338L11.4883 6.99219L11.3359 6.68848L10.9971 6.71777Z" fill="#555555" stroke="#555555"/>
</svg>
